<?xml version="1.0" encoding="UTF-8" standalone="no"?>
<svg
   width="132.09312mm"
   height="17.658613mm"
   viewBox="0 0 1872.186 250.27956"
   version="1.2"
   id="svg40"
   sodipodi:docname="Flageolett-Viola-1.svg"
   inkscape:version="1.3 (0e150ed6c4, 2023-07-21)"
   xmlns:inkscape="http://www.inkscape.org/namespaces/inkscape"
   xmlns:sodipodi="http://sodipodi.sourceforge.net/DTD/sodipodi-0.dtd"
   xmlns="http://www.w3.org/2000/svg"
   xmlns:svg="http://www.w3.org/2000/svg">
  <defs
     id="defs40" />
  <sodipodi:namedview
     id="namedview40"
     pagecolor="#505050"
     bordercolor="#eeeeee"
     borderopacity="1"
     inkscape:showpageshadow="0"
     inkscape:pageopacity="0"
     inkscape:pagecheckerboard="0"
     inkscape:deskcolor="#d1d1d1"
     inkscape:document-units="mm"
     inkscape:zoom="1.6101725"
     inkscape:cx="307.10994"
     inkscape:cy="484.73066"
     inkscape:window-width="3840"
     inkscape:window-height="2054"
     inkscape:window-x="-11"
     inkscape:window-y="-11"
     inkscape:window-maximized="1"
     inkscape:current-layer="svg40" />
  <title
     id="title1">Flageolett-Viola</title>
  <desc
     id="desc1">Generated by MuseScore Studio 4.5.2</desc>
  <polyline
     class="StaffLines"
     fill="none"
     stroke="#000000"
     stroke-width="3.22"
     stroke-linejoin="bevel"
     points="336.599,386.199 2208.78,386.199"
     id="polyline1"
     transform="translate(-336.599,-285.80451)" />
  <polyline
     class="StaffLines"
     fill="none"
     stroke="#000000"
     stroke-width="3.22"
     stroke-linejoin="bevel"
     points="336.599,410.999 2208.78,410.999"
     id="polyline2"
     transform="translate(-336.599,-285.80451)" />
  <polyline
     class="StaffLines"
     fill="none"
     stroke="#000000"
     stroke-width="3.22"
     stroke-linejoin="bevel"
     points="336.599,435.799 2208.78,435.799"
     id="polyline3"
     transform="translate(-336.599,-285.80451)" />
  <polyline
     class="StaffLines"
     fill="none"
     stroke="#000000"
     stroke-width="3.22"
     stroke-linejoin="bevel"
     points="336.599,460.599 2208.78,460.599"
     id="polyline4"
     transform="translate(-336.599,-285.80451)" />
  <polyline
     class="StaffLines"
     fill="none"
     stroke="#000000"
     stroke-width="3.22"
     stroke-linejoin="bevel"
     points="336.599,485.399 2208.78,485.399"
     id="polyline5"
     transform="translate(-336.599,-285.80451)" />
  <polyline
     class="BarLine"
     fill="none"
     stroke="#000000"
     stroke-width="3.97"
     stroke-linejoin="bevel"
     points="1889.42,384.587 1889.42,487.011"
     id="polyline6"
     transform="translate(-336.599,-285.80451)" />
  <polyline
     class="BarLine"
     fill="none"
     stroke="#000000"
     stroke-width="3.97"
     stroke-linejoin="bevel"
     points="823.095,384.587 823.095,487.011"
     id="polyline7"
     transform="translate(-336.599,-285.80451)" />
  <polyline
     class="BarLine"
     fill="none"
     stroke="#000000"
     stroke-width="3.97"
     stroke-linejoin="bevel"
     points="1575.09,384.587 1575.09,487.011"
     id="polyline8"
     transform="translate(-336.599,-285.80451)" />
  <polyline
     class="BarLine"
     fill="none"
     stroke="#000000"
     stroke-width="3.97"
     stroke-linejoin="bevel"
     points="1199.09,384.587 1199.09,487.011"
     id="polyline9"
     transform="translate(-336.599,-285.80451)" />
  <polyline
     class="BarLine"
     fill="none"
     stroke="#000000"
     stroke-width="3.97"
     stroke-linejoin="bevel"
     points="2206.8,384.587 2206.8,487.011"
     id="polyline10"
     transform="translate(-336.599,-285.80451)" />
  <path
     class="Accidental"
     d="m 1569.3465,223.79931 c 0.2061,0.28213 0.4123,0.3472 0.6184,0.3472 0.217,0 0.4232,-0.14104 0.4232,-0.14104 2.0832,-1.18263 3.7432,-3.04883 5.4792,-4.23154 6.1845,-4.30744 8.3329,-8.53894 8.3329,-11.7397 0,-3.96029 -3.0489,-6.45576 -6.2497,-6.66192 -1.1718,0 -2.8427,0.55336 -3.8192,1.18263 -0.4123,0.3472 -1.1718,0.9657 -1.519,0.9657 -0.141,0 -0.217,0 -0.3472,-0.0651 -0.4882,-0.20617 -0.7703,-0.6944 -0.7703,-1.18264 0.076,-1.52983 0.4882,-18.19545 0.4882,-19.58426 0,-0.75953 -0.6293,-1.1827 -1.3237,-1.1827 -0.9656,0 -2.0832,0.6944 -2.1483,1.94217 0,0 0.2821,39.65682 0.8355,40.35123 m 2.4304,-6.18451 c 0,0 -0.2062,-4.16641 -0.2062,-6.94401 0,-1.1067 0.065,-1.94216 0.1302,-2.21341 0.4883,-1.3888 3.2659,-3.4069 4.8608,-3.4069 2.0181,0 2.8535,2.28935 2.8535,4.02535 0,3.75411 -3.2007,7.49737 -6.1844,9.37442 -0.2713,0.14105 -0.4883,0.20615 -0.6944,0.20615 -0.6185,0 -0.7595,-0.6944 -0.7595,-1.0416"
     id="path10"
     style="stroke-width:0.694401" />
  <polyline
     class="LedgerLine"
     fill="none"
     stroke="#000000"
     stroke-width="3.97"
     stroke-linejoin="bevel"
     points="1703.78,361.399 1769.14,361.399"
     id="polyline11"
     transform="translate(-336.599,-285.80451)" />
  <polyline
     class="LedgerLine"
     fill="none"
     stroke="#000000"
     stroke-width="3.97"
     stroke-linejoin="bevel"
     points="1703.78,336.599 1769.14,336.599"
     id="polyline12"
     transform="translate(-336.599,-285.80451)" />
  <polyline
     class="LedgerLine"
     fill="none"
     stroke="#000000"
     stroke-width="3.97"
     stroke-linejoin="bevel"
     points="470.162,510.199 535.526,510.199"
     id="polyline13"
     transform="translate(-336.599,-285.80451)" />
  <polyline
     class="LedgerLine"
     fill="none"
     stroke="#000000"
     stroke-width="3.97"
     stroke-linejoin="bevel"
     points="846.159,510.199 911.523,510.199"
     id="polyline14"
     transform="translate(-336.599,-285.80451)" />
  <polyline
     class="LedgerLine"
     fill="none"
     stroke="#000000"
     stroke-width="3.97"
     stroke-linejoin="bevel"
     points="1222.16,510.199 1287.52,510.199"
     id="polyline15"
     transform="translate(-336.599,-285.80451)" />
  <polyline
     class="LedgerLine"
     fill="none"
     stroke="#000000"
     stroke-width="2.78"
     stroke-linejoin="bevel"
     points="1596.48,510.199 1642.23,510.199"
     id="polyline16"
     transform="translate(-336.599,-285.80451)" />
  <polyline
     class="LedgerLine"
     fill="none"
     stroke="#000000"
     stroke-width="3.97"
     stroke-linejoin="bevel"
     points="1389.45,361.399 1454.81,361.399"
     id="polyline17"
     transform="translate(-336.599,-285.80451)" />
  <polyline
     class="LedgerLine"
     fill="none"
     stroke="#000000"
     stroke-width="2.78"
     stroke-linejoin="bevel"
     points="1913.86,510.199 1959.61,510.199"
     id="polyline18"
     transform="translate(-336.599,-285.80451)" />
  <polyline
     class="LedgerLine"
     fill="none"
     stroke="#000000"
     stroke-width="3.97"
     stroke-linejoin="bevel"
     points="2021.16,311.798 2086.52,311.798"
     id="polyline19"
     transform="translate(-336.599,-285.80451)" />
  <polyline
     class="LedgerLine"
     fill="none"
     stroke="#000000"
     stroke-width="3.97"
     stroke-linejoin="bevel"
     points="2021.16,336.599 2086.52,336.599"
     id="polyline20"
     transform="translate(-336.599,-285.80451)" />
  <polyline
     class="LedgerLine"
     fill="none"
     stroke="#000000"
     stroke-width="3.97"
     stroke-linejoin="bevel"
     points="2021.16,361.399 2086.52,361.399"
     id="polyline21"
     transform="translate(-336.599,-285.80451)" />
  <path
     class="Note"
     d="m 1086.083,49.601 c -14.384,0 -23.312,6.060481 -23.312,13.391989 0,7.238507 6.1535,13.686563 22.2271,13.686563 17.6544,0 23.312,-6.138056 23.312,-13.686563 0,-7.641508 -12.1985,-13.391989 -22.2271,-13.391989 m -2.7745,2.480002 c 7.3471,0 13.2991,7.935979 13.2991,14.49249 0,5.456006 -3.3791,7.626058 -8.246,7.626058 -7.1455,0 -13.9811,-8.230553 -13.9811,-15.17457 0,-5.549006 3.8596,-6.943978 8.928,-6.943978"
     id="path21"
     style="stroke-width:0.992001" />
  <path
     class="Note"
     d="m 925.03849,188.88395 c -2.09243,4.06103 -7.93598,7.44003 -12.10549,9.51703 -0.6975,0.40301 -0.992,0.89901 -0.992,1.19351 0,0.403 0.2945,0.7905 0.992,1.085 3.968,2.18551 9.82706,6.26201 12.10549,10.02849 0.496,0.79052 0.88357,1.28652 1.19357,1.28652 0.496,0 0.88348,-0.496 1.28643,-1.28652 1.68958,-3.37898 8.72653,-7.84298 12.10559,-9.71849 0.992,-0.403 1.37947,-0.806 1.37947,-1.1935 0,-0.496 -0.496,-0.899 -1.488,-1.48801 -4.35548,-3.0845 -8.92801,-4.867 -11.50106,-9.42403 -0.69747,-1.10052 -1.10043,-1.68947 -1.59643,-1.68947 -0.29452,0 -0.79052,0.58895 -1.37957,1.68947 m -2.48,11.70254 c 0,-2.573 2.18557,-9.33101 3.76652,-9.33101 1.39506,0 3.76653,4.6655 3.76653,7.64151 0,2.7745 -2.37147,10.02851 -3.85948,10.02851 -1.302,0 -3.67357,-6.26201 -3.67357,-8.33901"
     id="path22"
     style="stroke-width:0.992001" />
  <path
     class="Note"
     d="m 1283.1394,227.27904 c -10.0688,0 -16.3184,4.24234 -16.3184,9.3744 0,5.06696 4.3075,9.5806 15.559,9.5806 12.3581,0 16.3184,-4.29664 16.3184,-9.5806 0,-5.34906 -8.539,-9.3744 -15.559,-9.3744 m -1.9421,1.73601 c 5.1429,0 9.3093,5.55518 9.3093,10.14474 0,3.81921 -2.3653,5.33824 -5.7722,5.33824 -5.0018,0 -9.7868,-5.76138 -9.7868,-10.6222 0,-3.8843 2.7018,-4.86078 6.2497,-4.86078"
     id="path23"
     style="stroke-width:0.694401" />
  <path
     class="Note"
     d="m 1287.5192,204.49711 c -1.4647,2.84272 -5.5551,5.20802 -8.4738,6.66192 -0.4882,0.28211 -0.6944,0.62931 -0.6944,0.83546 0,0.2821 0.2062,0.55335 0.6944,0.7595 2.7776,1.52986 6.8789,4.38341 8.4738,7.01994 0.3472,0.55337 0.6185,0.90057 0.8355,0.90057 0.3472,0 0.6185,-0.3472 0.9005,-0.90057 1.1828,-2.36528 6.1086,-5.49008 8.474,-6.80294 0.6944,-0.2821 0.9656,-0.5642 0.9656,-0.83545 0,-0.3472 -0.3472,-0.6293 -1.0416,-1.04161 -3.0488,-2.15915 -6.2496,-3.4069 -8.0508,-6.59682 -0.4882,-0.77037 -0.7703,-1.18263 -1.1175,-1.18263 -0.2061,0 -0.5533,0.41226 -0.9657,1.18263 m -1.736,8.19178 c 0,-1.8011 1.5299,-6.53171 2.6366,-6.53171 0.9766,0 2.6366,3.26585 2.6366,5.34906 0,1.94215 -1.66,7.01996 -2.7017,7.01996 -0.9114,0 -2.5715,-4.38341 -2.5715,-5.83731"
     id="path24"
     style="stroke-width:0.694401" />
  <path
     class="Note"
     d="m 1400.413,24.801 c -14.384,0 -23.312,6.060481 -23.312,13.391989 0,7.238507 6.1535,13.686563 22.2271,13.686563 17.6544,0 23.312,-6.138056 23.312,-13.686563 0,-7.641508 -12.1985,-13.391989 -22.2271,-13.391989 m -2.7745,2.480002 c 7.3471,0 13.2991,7.935979 13.2991,14.49249 0,5.456006 -3.3791,7.626058 -8.246,7.626058 -7.1455,0 -13.9811,-8.230553 -13.9811,-15.17457 0,-5.549006 3.8596,-6.943978 8.928,-6.943978"
     id="path25"
     style="stroke-width:0.992001" />
  <path
     class="Note"
     d="m 173.04149,139.28395 c -2.09243,4.06103 -7.93598,7.44003 -12.10549,9.51703 -0.6975,0.40301 -0.992,0.89901 -0.992,1.19351 0,0.403 0.2945,0.7905 0.992,1.085 3.96801,2.18551 9.82706,6.26201 12.10549,10.02849 0.496,0.79052 0.88357,1.28652 1.19357,1.28652 0.496,0 0.88348,-0.496 1.28643,-1.28652 1.68958,-3.37898 8.72653,-7.84298 12.10559,-9.71849 0.992,-0.403 1.37947,-0.806 1.37947,-1.1935 0,-0.496 -0.496,-0.899 -1.488,-1.48801 -4.35548,-3.0845 -8.92801,-4.867 -11.50106,-9.42403 -0.69747,-1.10052 -1.10043,-1.68947 -1.59643,-1.68947 -0.29452,0 -0.79052,0.58895 -1.37957,1.68947 m -2.48,11.70254 c 0,-2.573 2.18557,-9.33101 3.76652,-9.33101 1.39506,0 3.76653,4.6655 3.76653,7.64151 0,2.7745 -2.37147,10.02851 -3.85948,10.02851 -1.302,0 -3.67357,-6.26201 -3.67357,-8.33901"
     id="path26"
     style="stroke-width:0.992001" />
  <path
     class="Note"
     d="m 334.08602,136.401 c -14.38401,0 -23.31202,6.06048 -23.31202,13.39199 0,7.23851 6.15351,13.68656 22.22707,13.68656 17.65445,0 23.31203,-6.13805 23.31203,-13.68656 0,-7.64151 -12.19854,-13.39199 -22.22708,-13.39199 m -2.77452,2.48 c 7.34705,0 13.29906,7.93598 13.29906,14.49249 0,5.45601 -3.37905,7.62606 -8.24601,7.62606 -7.14548,0 -13.98106,-8.23055 -13.98106,-15.17457 0,-5.54901 3.85958,-6.94398 8.92801,-6.94398"
     id="path27"
     style="stroke-width:0.992001" />
  <path
     class="Note"
     d="m 1600.5194,227.27904 c -10.0688,0 -16.3184,4.24234 -16.3184,9.3744 0,5.06696 4.3075,9.5806 15.559,9.5806 12.3581,0 16.3184,-4.29664 16.3184,-9.5806 0,-5.34906 -8.539,-9.3744 -15.559,-9.3744 m -1.9421,1.73601 c 5.1429,0 9.3093,5.55518 9.3093,10.14474 0,3.81921 -2.3653,5.33824 -5.7722,5.33824 -5.0018,0 -9.7868,-5.76138 -9.7868,-10.6222 0,-3.8843 2.7018,-4.86078 6.2497,-4.86078"
     id="path28"
     style="stroke-width:0.694401" />
  <path
     class="Note"
     d="m 1604.8892,204.49711 c -1.4647,2.84272 -5.5551,5.20802 -8.4738,6.66192 -0.4882,0.28211 -0.6944,0.62931 -0.6944,0.83546 0,0.2821 0.2062,0.55335 0.6944,0.7595 2.7776,1.52986 6.8789,4.38341 8.4738,7.01994 0.3472,0.55337 0.6185,0.90057 0.8355,0.90057 0.3472,0 0.6185,-0.3472 0.9005,-0.90057 1.1828,-2.36528 6.1086,-5.49008 8.474,-6.80294 0.6944,-0.2821 0.9656,-0.5642 0.9656,-0.83545 0,-0.3472 -0.3472,-0.6293 -1.0416,-1.04161 -3.0488,-2.15915 -6.2496,-3.4069 -8.0508,-6.59682 -0.4882,-0.77037 -0.7703,-1.18263 -1.1175,-1.18263 -0.2061,0 -0.5533,0.41226 -0.9657,1.18263 m -1.736,8.19178 c 0,-1.8011 1.5299,-6.53171 2.6366,-6.53171 0.9766,0 2.6366,3.26585 2.6366,5.34906 0,1.94215 -1.66,7.01996 -2.7017,7.01996 -0.9114,0 -2.5715,-4.38341 -2.5715,-5.83731"
     id="path29"
     style="stroke-width:0.694401" />
  <path
     class="Note"
     d="m 166.79502,223.201 c -14.38401,0 -23.31202,6.06048 -23.31202,13.39199 0,7.23851 6.15351,13.68656 22.22707,13.68656 17.65445,0 23.31203,-6.13805 23.31203,-13.68656 0,-7.64151 -12.19854,-13.39199 -22.22708,-13.39199 m -2.77452,2.48 c 7.34705,0 13.29906,7.93598 13.29906,14.49249 0,5.45601 -3.37905,7.62606 -8.24601,7.62606 -7.14548,0 -13.98106,-8.23055 -13.98106,-15.17457 0,-5.54901 3.85958,-6.94398 8.92801,-6.94398"
     id="path30"
     style="stroke-width:0.992001" />
  <path
     class="Note"
     d="m 542.79202,223.201 c -14.38401,0 -23.31202,6.06048 -23.31202,13.39199 0,7.23851 6.15351,13.68656 22.22707,13.68656 17.65445,0 23.31203,-6.13805 23.31203,-13.68656 0,-7.64151 -12.19854,-13.39199 -22.22708,-13.39199 m -2.77452,2.48 c 7.34705,0 13.29906,7.93598 13.29906,14.49249 0,5.45601 -3.37905,7.62606 -8.24601,7.62606 -7.14548,0 -13.98106,-8.23055 -13.98106,-15.17457 0,-5.54901 3.85958,-6.94398 8.92801,-6.94398"
     id="path31"
     style="stroke-width:0.992001" />
  <path
     class="Note"
     d="m 549.03849,176.48395 c -2.09243,4.06103 -7.93598,7.44003 -12.10549,9.51703 -0.6975,0.40301 -0.992,0.89901 -0.992,1.19351 0,0.403 0.2945,0.7905 0.992,1.085 3.96801,2.18551 9.82706,6.26201 12.10549,10.02849 0.496,0.79052 0.88357,1.28652 1.19357,1.28652 0.496,0 0.88348,-0.496 1.28643,-1.28652 1.68958,-3.37898 8.72653,-7.84298 12.10559,-9.71849 0.992,-0.403 1.37947,-0.806 1.37947,-1.1935 0,-0.496 -0.496,-0.899 -1.488,-1.48801 -4.35548,-3.0845 -8.92801,-4.867 -11.50106,-9.42403 -0.69747,-1.10052 -1.10043,-1.68947 -1.59643,-1.68947 -0.29452,0 -0.79052,0.58895 -1.37957,1.68947 m -2.48,11.70254 c 0,-2.573 2.18557,-9.33101 3.76652,-9.33101 1.39506,0 3.76653,4.6655 3.76653,7.64151 0,2.7745 -2.37147,10.02851 -3.85948,10.02851 -1.302,0 -3.67357,-6.26201 -3.67357,-8.33901"
     id="path32"
     style="stroke-width:0.992001" />
  <path
     class="Note"
     d="m 710.08302,86.801 c -14.38401,0 -23.31202,6.060481 -23.31202,13.39199 0,7.23851 6.15351,13.68656 22.22707,13.68656 17.65445,0 23.31203,-6.13805 23.31203,-13.68656 0,-7.641509 -12.19854,-13.39199 -22.22708,-13.39199 m -2.77452,2.480002 c 7.34705,0 13.29906,7.935979 13.29906,14.492488 0,5.45601 -3.37905,7.62606 -8.24601,7.62606 -7.14548,0 -13.98106,-8.23055 -13.98106,-15.17457 0,-5.549006 3.85958,-6.943978 8.92801,-6.943978"
     id="path33"
     style="stroke-width:0.992001" />
  <path
     class="Note"
     d="m 1717.793,0 c -14.384,0 -23.312,6.0604813 -23.312,13.391989 0,7.238507 6.1535,13.686563 22.2271,13.686563 17.6544,0 23.312,-6.138056 23.312,-13.686563 C 1740.0201,5.750481 1727.8216,0 1717.793,0 m -2.7745,2.4800025 c 7.3471,0 13.2991,7.9359785 13.2991,14.4924895 0,5.456006 -3.3791,7.626058 -8.246,7.626058 -7.1455,0 -13.9811,-8.230553 -13.9811,-15.1745703 0,-5.5490056 3.8596,-6.9439772 8.928,-6.9439772"
     id="path34"
     style="stroke-width:0.992001" />
  <path
     class="Note"
     d="m 918.79302,223.201 c -14.38401,0 -23.31202,6.06048 -23.31202,13.39199 0,7.23851 6.15351,13.68656 22.22707,13.68656 17.65445,0 23.31203,-6.13805 23.31203,-13.68656 0,-7.64151 -12.19854,-13.39199 -22.22708,-13.39199 m -2.77452,2.48 c 7.34705,0 13.29906,7.93598 13.29906,14.49249 0,5.45601 -3.37905,7.62606 -8.24601,7.62606 -7.14548,0 -13.98106,-8.23055 -13.98106,-15.17457 0,-5.54901 3.85958,-6.94398 8.92801,-6.94398"
     id="path35"
     style="stroke-width:0.992001" />
  <path
     class="Clef"
     d="m 41.416023,102.17697 c 0,-1.39506 -0.697476,-2.07706 -2.076952,-2.07706 h -0.108525 c -1.379477,0 -2.077052,0.682 -2.077052,2.07706 v 95.63504 c 0,1.39505 0.697575,2.07705 2.077052,2.07705 h 0.108525 c 1.379476,0 2.076952,-0.682 2.076952,-2.07705 v -43.44652 c 0,-0.806 0.496001,-0.69749 0.899051,-0.60449 2.572953,0.69749 6.742432,3.2705 8.819484,14.49256 0.31,1.58095 0.898951,2.48 1.890952,2.48 1.085051,0 1.581051,-0.992 2.077052,-2.68158 1.302001,-4.37095 3.580528,-9.22248 10.617486,-9.22248 6.448006,0 8.230533,6.33953 8.230533,19.34407 0,12.98896 -2.278527,18.84802 -10.509061,18.84802 -1.394951,0 -8.432008,-0.60453 -8.432008,-2.68158 0,-0.496 1.581051,-1.08495 2.681577,-1.488 1.984002,-0.69748 3.968004,-2.68148 3.968004,-6.44801 0,-4.37095 -2.883052,-6.85096 -6.742532,-6.85096 -4.278004,0 -7.641482,2.88296 -7.641482,8.13749 0,6.24653 5.456005,12.50853 17.251492,12.50853 16.274967,0 23.420549,-11.40801 23.420549,-21.73107 0,-13.68644 -7.548533,-23.21899 -20.739071,-23.21899 -2.867478,0 -4.75853,0.496 -6.044956,0.899 -0.992001,0.2945 -1.984002,0.496 -2.883053,-0.10851 -1.379477,-0.88349 -3.564954,-4.061 -3.564954,-6.045 0,-1.984 2.185477,-5.16151 3.564954,-6.04501 0.899051,-0.6045 1.891052,-0.403 2.883053,-0.1085 1.286426,0.403 3.177478,0.899 6.044956,0.899 13.190538,0 20.739071,-9.53256 20.739071,-23.219 0,-10.32306 -7.145582,-21.731067 -23.420549,-21.731067 -11.795487,0 -17.251492,6.262007 -17.251492,12.508537 0,5.25453 3.363478,8.13748 7.641482,8.13748 3.85948,0 6.742532,-2.48 6.742532,-6.85095 0,-3.76653 -1.984002,-5.75053 -3.968004,-6.44801 -1.100526,-0.40305 -2.681577,-0.992 -2.681577,-1.488 0,-2.07705 7.037057,-2.68158 8.432008,-2.68158 8.230534,0 10.509061,5.85906 10.509061,18.84802 0,13.00454 -1.782527,19.34407 -8.230533,19.34407 -7.036958,0 -9.315485,-4.85153 -10.617486,-9.22248 -0.496001,-1.68958 -0.992001,-2.68158 -2.077052,-2.68158 -0.992001,0 -1.580952,0.89905 -1.890952,2.48 -2.077052,11.22206 -6.246531,13.79506 -8.819484,14.49256 -0.40305,0.093 -0.899051,0.20151 -0.899051,-0.6045 v -43.44651 m -20.739021,-2.07706 c -1.379501,0 -2.077002,0.682 -2.077002,2.07706 v 95.63504 c 0,1.39505 0.697501,2.07705 2.077002,2.07705 h 8.540484 c 1.379576,0 2.077052,-0.682 2.077052,-2.07705 v -95.63504 c 0,-1.39506 -0.697476,-2.07706 -2.077052,-2.07706 h -8.540484"
     id="path36"
     style="stroke-width:0.992001" />
  <polyline
     class="NoteLineSegment"
     fill="none"
     stroke="#000000"
     stroke-width="3.72"
     stroke-linejoin="miter"
     stroke-miterlimit="2"
     points="541.726,502.425 641.173,450.826"
     id="polyline36"
     transform="translate(-336.599,-285.80451)" />
  <polyline
     class="NoteLineSegment"
     fill="none"
     stroke="#000000"
     stroke-width="3.72"
     stroke-linejoin="miter"
     stroke-miterlimit="2"
     points="917.723,490.897 1017.17,409.813"
     id="polyline37"
     transform="translate(-336.599,-285.80451)" />
  <polyline
     class="NoteLineSegment"
     fill="none"
     stroke="#000000"
     stroke-width="3.72"
     stroke-linejoin="miter"
     stroke-miterlimit="2"
     points="1293.72,482.25 1383.25,389.347"
     id="polyline38"
     transform="translate(-336.599,-285.80451)" />
  <polyline
     class="NoteLineSegment"
     fill="none"
     stroke="#000000"
     stroke-width="3.72"
     stroke-linejoin="miter"
     stroke-miterlimit="2"
     points="1641.49,485.1 1697.58,390.073"
     id="polyline39"
     transform="translate(-336.599,-285.80451)" />
  <polyline
     class="NoteLineSegment"
     fill="none"
     stroke="#000000"
     stroke-width="3.72"
     stroke-linejoin="miter"
     stroke-miterlimit="2"
     points="1958.87,480.413 2014.96,373.508"
     id="polyline40"
     transform="translate(-336.599,-285.80451)" />
</svg>
