<?xml version="1.0" encoding="UTF-8" standalone="no"?>
<svg
   width="132.09319mm"
   height="17.658541mm"
   viewBox="0 0 1872.1869 250.27853"
   version="1.2"
   id="svg42"
   sodipodi:docname="Flageolett-1.svg"
   inkscape:version="1.3 (0e150ed6c4, 2023-07-21)"
   xmlns:inkscape="http://www.inkscape.org/namespaces/inkscape"
   xmlns:sodipodi="http://sodipodi.sourceforge.net/DTD/sodipodi-0.dtd"
   xmlns="http://www.w3.org/2000/svg"
   xmlns:svg="http://www.w3.org/2000/svg">
  <defs
     id="defs42" />
  <sodipodi:namedview
     id="namedview42"
     pagecolor="#505050"
     bordercolor="#eeeeee"
     borderopacity="1"
     inkscape:showpageshadow="0"
     inkscape:pageopacity="0"
     inkscape:pagecheckerboard="0"
     inkscape:deskcolor="#d1d1d1"
     inkscape:document-units="mm"
     inkscape:zoom="1.6101725"
     inkscape:cx="307.10994"
     inkscape:cy="478.52015"
     inkscape:window-width="3840"
     inkscape:window-height="2054"
     inkscape:window-x="-11"
     inkscape:window-y="-11"
     inkscape:window-maximized="1"
     inkscape:current-layer="svg42" />
  <title
     id="title1">Flageolett</title>
  <desc
     id="desc1">Generated by MuseScore Studio 4.5.2</desc>
  <polyline
     class="StaffLines"
     fill="none"
     stroke="#000000"
     stroke-width="3.22"
     stroke-linejoin="bevel"
     points="336.598,386.198 2208.78,386.198"
     id="polyline1"
     transform="translate(-336.598,-310.60452)" />
  <polyline
     class="StaffLines"
     fill="none"
     stroke="#000000"
     stroke-width="3.22"
     stroke-linejoin="bevel"
     points="336.598,410.998 2208.78,410.998"
     id="polyline2"
     transform="translate(-336.598,-310.60452)" />
  <polyline
     class="StaffLines"
     fill="none"
     stroke="#000000"
     stroke-width="3.22"
     stroke-linejoin="bevel"
     points="336.598,435.798 2208.78,435.798"
     id="polyline3"
     transform="translate(-336.598,-310.60452)" />
  <polyline
     class="StaffLines"
     fill="none"
     stroke="#000000"
     stroke-width="3.22"
     stroke-linejoin="bevel"
     points="336.598,460.598 2208.78,460.598"
     id="polyline4"
     transform="translate(-336.598,-310.60452)" />
  <polyline
     class="StaffLines"
     fill="none"
     stroke="#000000"
     stroke-width="3.22"
     stroke-linejoin="bevel"
     points="336.598,485.398 2208.78,485.398"
     id="polyline5"
     transform="translate(-336.598,-310.60452)" />
  <polyline
     class="BarLine"
     fill="none"
     stroke="#000000"
     stroke-width="3.97"
     stroke-linejoin="bevel"
     points="1882.32,384.586 1882.32,487.01"
     id="polyline6"
     transform="translate(-336.598,-310.60452)" />
  <polyline
     class="BarLine"
     fill="none"
     stroke="#000000"
     stroke-width="3.97"
     stroke-linejoin="bevel"
     points="2206.8,384.586 2206.8,487.01"
     id="polyline7"
     transform="translate(-336.598,-310.60452)" />
  <polyline
     class="BarLine"
     fill="none"
     stroke="#000000"
     stroke-width="3.97"
     stroke-linejoin="bevel"
     points="1189.35,384.586 1189.35,487.01"
     id="polyline8"
     transform="translate(-336.598,-310.60452)" />
  <polyline
     class="BarLine"
     fill="none"
     stroke="#000000"
     stroke-width="3.97"
     stroke-linejoin="bevel"
     points="1561.86,384.586 1561.86,487.01"
     id="polyline9"
     transform="translate(-336.598,-310.60452)" />
  <polyline
     class="BarLine"
     fill="none"
     stroke="#000000"
     stroke-width="3.97"
     stroke-linejoin="bevel"
     points="816.837,384.586 816.837,487.01"
     id="polyline10"
     transform="translate(-336.598,-310.60452)" />
  <path
     class="Accidental"
     d="m 1250.7387,199.42914 c -0.1302,0 -0.2061,0.0651 -0.2713,0.0651 0,0 -4.4484,1.59496 -6.2495,1.59496 -0.4232,0 -0.6944,-0.0651 -0.6944,-0.3472 v -11.5987 c 0,-0.48823 -0.4232,-0.83543 -0.8355,-0.83543 h -0.9005 c -0.4883,0 -0.8355,0.3472 -0.8355,0.83543 v 35.76167 c 0,0.4231 0.2062,0.62927 0.6293,0.62927 l 0.1302,-0.0651 c 0.076,0 0.217,0 0.2821,-0.076 0.9765,-0.41233 4.8608,-2.0832 6.8789,-2.0832 0.6944,0 1.1718,0.20617 1.1718,0.77037 v 10.34003 c 0,0.48824 0.3472,0.83544 0.8355,0.83544 h 0.9005 c 0.4231,0 0.8355,-0.3472 0.8355,-0.83544 v -34.8611 c 0,-0.3472 -0.2713,-0.5533 -0.5534,-0.5533 -0.065,0 -0.2062,0 -0.2821,0.0759 l -1.0416,0.3472 m -7.2152,9.85184 c 0,-0.96566 4.2315,-2.7776 5.9023,-2.7776 0.4124,0 0.6185,0.0759 0.6185,0.3472 v 7.161 c 0,1.24775 -3.9494,2.8427 -5.6854,2.8427 -0.4882,0 -0.8354,-0.14105 -0.8354,-0.4123 v -7.161"
     id="path10"
     style="stroke-width:0.6944" />
  <path
     class="Accidental"
     d="m 1562.2375,223.79828 c 0.2061,0.28213 0.4123,0.3472 0.6184,0.3472 0.217,0 0.4232,-0.14104 0.4232,-0.14104 2.0832,-1.18263 3.7432,-3.04883 5.4792,-4.23153 6.1845,-4.30743 8.3328,-8.53893 8.3328,-11.73969 0,-3.96028 -3.0489,-6.45574 -6.2496,-6.66191 -1.1718,0 -2.8427,0.55337 -3.8192,1.18263 -0.4123,0.3472 -1.1718,0.9657 -1.519,0.9657 -0.141,0 -0.217,0 -0.3472,-0.0651 -0.4882,-0.20617 -0.7703,-0.6944 -0.7703,-1.18263 0.076,-1.52984 0.4882,-18.19544 0.4882,-19.58424 0,-0.75953 -0.6293,-1.1827 -1.3237,-1.1827 -0.9656,0 -2.0832,0.6944 -2.1483,1.94217 0,0 0.2821,39.65677 0.8355,40.35117 m 2.4304,-6.1845 c 0,0 -0.2062,-4.1664 -0.2062,-6.944 0,-1.1067 0.065,-1.94216 0.1302,-2.2134 0.4883,-1.3888 3.2659,-3.4069 4.8608,-3.4069 2.0181,0 2.8535,2.28934 2.8535,4.02534 0,3.75411 -3.2007,7.49736 -6.1844,9.37441 -0.2713,0.14105 -0.4883,0.20615 -0.6944,0.20615 -0.6185,0 -0.7595,-0.6944 -0.7595,-1.0416"
     id="path11"
     style="stroke-width:0.6944" />
  <polyline
     class="LedgerLine"
     fill="none"
     stroke="#000000"
     stroke-width="2.78"
     stroke-linejoin="bevel"
     points="1592.34,510.198 1649.61,510.198"
     id="polyline11"
     transform="translate(-336.598,-310.60452)" />
  <polyline
     class="LedgerLine"
     fill="none"
     stroke="#000000"
     stroke-width="2.78"
     stroke-linejoin="bevel"
     points="1592.34,534.998 1638.09,534.998"
     id="polyline12"
     transform="translate(-336.598,-310.60452)" />
  <polyline
     class="LedgerLine"
     fill="none"
     stroke="#000000"
     stroke-width="3.97"
     stroke-linejoin="bevel"
     points="1698.42,361.398 1763.78,361.398"
     id="polyline13"
     transform="translate(-336.598,-310.60452)" />
  <polyline
     class="LedgerLine"
     fill="none"
     stroke="#000000"
     stroke-width="3.97"
     stroke-linejoin="bevel"
     points="467.387,510.198 532.751,510.198"
     id="polyline14"
     transform="translate(-336.598,-310.60452)" />
  <polyline
     class="LedgerLine"
     fill="none"
     stroke="#000000"
     stroke-width="3.97"
     stroke-linejoin="bevel"
     points="467.387,534.998 532.751,534.998"
     id="polyline15"
     transform="translate(-336.598,-310.60452)" />
  <polyline
     class="LedgerLine"
     fill="none"
     stroke="#000000"
     stroke-width="3.97"
     stroke-linejoin="bevel"
     points="839.901,534.998 905.264,534.998"
     id="polyline16"
     transform="translate(-336.598,-310.60452)" />
  <polyline
     class="LedgerLine"
     fill="none"
     stroke="#000000"
     stroke-width="2.78"
     stroke-linejoin="bevel"
     points="1916.82,510.198 1974.09,510.198"
     id="polyline17"
     transform="translate(-336.598,-310.60452)" />
  <polyline
     class="LedgerLine"
     fill="none"
     stroke="#000000"
     stroke-width="2.78"
     stroke-linejoin="bevel"
     points="1916.82,534.998 1962.57,534.998"
     id="polyline18"
     transform="translate(-336.598,-310.60452)" />
  <polyline
     class="LedgerLine"
     fill="none"
     stroke="#000000"
     stroke-width="3.97"
     stroke-linejoin="bevel"
     points="839.901,510.198 905.264,510.198"
     id="polyline19"
     transform="translate(-336.598,-310.60452)" />
  <polyline
     class="LedgerLine"
     fill="none"
     stroke="#000000"
     stroke-width="3.97"
     stroke-linejoin="bevel"
     points="2022.9,336.598 2088.26,336.598"
     id="polyline20"
     transform="translate(-336.598,-310.60452)" />
  <polyline
     class="LedgerLine"
     fill="none"
     stroke="#000000"
     stroke-width="3.97"
     stroke-linejoin="bevel"
     points="2022.9,361.398 2088.26,361.398"
     id="polyline21"
     transform="translate(-336.598,-310.60452)" />
  <polyline
     class="LedgerLine"
     fill="none"
     stroke="#000000"
     stroke-width="3.97"
     stroke-linejoin="bevel"
     points="1212.41,510.198 1294.24,510.198"
     id="polyline22"
     transform="translate(-336.598,-310.60452)" />
  <polyline
     class="LedgerLine"
     fill="none"
     stroke="#000000"
     stroke-width="3.97"
     stroke-linejoin="bevel"
     points="1212.41,534.998 1277.78,534.998"
     id="polyline23"
     transform="translate(-336.598,-310.60452)" />
  <path
     class="Note"
     d="m 170.26748,139.28295 c -2.09243,4.06102 -7.93598,7.44002 -12.10548,9.51702 -0.6975,0.40301 -0.992,0.89901 -0.992,1.19351 0,0.403 0.2945,0.7905 0.992,1.085 3.968,2.1855 9.82705,6.262 12.10548,10.02847 0.496,0.79053 0.88357,1.28653 1.19357,1.28653 0.496,0 0.88347,-0.496 1.28643,-1.28653 1.68957,-3.37897 8.72652,-7.84297 12.10557,-9.71847 0.992,-0.403 1.37947,-0.806 1.37947,-1.1935 0,-0.496 -0.496,-0.899 -1.488,-1.48801 -4.35547,-3.08449 -8.928,-4.867 -11.50104,-9.42402 -0.69748,-1.10052 -1.10043,-1.68947 -1.59643,-1.68947 -0.29453,0 -0.79053,0.58895 -1.37957,1.68947 m -2.48,11.70253 c 0,-2.573 2.18557,-9.331 3.76652,-9.331 1.39505,0 3.76652,4.66549 3.76652,7.6415 0,2.7745 -2.37147,10.0285 -3.85947,10.0285 -1.302,0 -3.67357,-6.262 -3.67357,-8.339"
     id="path23"
     style="stroke-width:0.992" />
  <path
     class="Note"
     d="m 329.57,136.4 c -14.384,0 -23.312,6.06048 -23.312,13.39198 0,7.2385 6.1535,13.68654 22.22705,13.68654 17.65443,0 23.312,-6.13804 23.312,-13.68654 0,-7.6415 -12.19853,-13.39198 -22.22705,-13.39198 m -2.77452,2.48 c 7.34704,0 13.29904,7.93597 13.29904,14.49248 0,5.456 -3.37904,7.62604 -8.246,7.62604 -7.14547,0 -13.98104,-8.23054 -13.98104,-15.17455 0,-5.549 3.85957,-6.94397 8.928,-6.94397"
     id="path24"
     style="stroke-width:0.992" />
  <path
     class="Note"
     d="m 164.021,223.2 c -14.384,0 -23.312,6.06048 -23.312,13.39198 0,7.2385 6.1535,13.68654 22.22705,13.68654 17.65443,0 23.312,-6.13804 23.312,-13.68654 0,-7.6415 -12.19853,-13.39198 -22.22705,-13.39198 m -2.77452,2.48 c 7.34704,0 13.29904,7.93597 13.29904,14.49248 0,5.456 -3.37904,7.62604 -8.246,7.62604 -7.14547,0 -13.98104,-8.23054 -13.98104,-15.17455 0,-5.549 3.85957,-6.94397 8.928,-6.94397"
     id="path25"
     style="stroke-width:0.992" />
  <path
     class="Note"
     d="m 536.535,223.2 c -14.384,0 -23.312,6.06048 -23.312,13.39198 0,7.2385 6.1535,13.68654 22.22705,13.68654 17.65443,0 23.312,-6.13804 23.312,-13.68654 0,-7.6415 -12.19853,-13.39198 -22.22705,-13.39198 m -2.77452,2.48 c 7.34704,0 13.29904,7.93597 13.29904,14.49248 0,5.456 -3.37904,7.62604 -8.246,7.62604 -7.14547,0 -13.98104,-8.23054 -13.98104,-15.17455 0,-5.549 3.85957,-6.94397 8.928,-6.94397"
     id="path26"
     style="stroke-width:0.992" />
  <path
     class="Note"
     d="m 915.28948,188.88295 c -2.09243,4.06102 -7.93598,7.44002 -12.10548,9.51702 -0.6975,0.40301 -0.992,0.89901 -0.992,1.19351 0,0.403 0.2945,0.7905 0.992,1.085 3.968,2.1855 9.82705,6.262 12.10548,10.02847 0.496,0.79053 0.88357,1.28653 1.19357,1.28653 0.496,0 0.88347,-0.496 1.28643,-1.28653 1.68957,-3.37897 8.72652,-7.84297 12.10557,-9.71847 0.992,-0.403 1.37947,-0.806 1.37947,-1.1935 0,-0.496 -0.496,-0.899 -1.488,-1.48801 -4.35547,-3.08449 -8.928,-4.867 -11.50104,-9.42402 -0.69748,-1.10052 -1.10043,-1.68947 -1.59643,-1.68947 -0.29453,0 -0.79053,0.58895 -1.37957,1.68947 m -2.48,11.70253 c 0,-2.573 2.18557,-9.331 3.76652,-9.331 1.39505,0 3.76652,4.66549 3.76652,7.6415 0,2.7745 -2.37147,10.0285 -3.85947,10.0285 -1.302,0 -3.67357,-6.262 -3.67357,-8.339"
     id="path27"
     style="stroke-width:0.992" />
  <path
     class="Note"
     d="m 909.044,223.2 c -14.384,0 -23.312,6.06048 -23.312,13.39198 0,7.2385 6.1535,13.68654 22.22705,13.68654 17.65443,0 23.312,-6.13804 23.312,-13.68654 0,-7.6415 -12.19853,-13.39198 -22.22705,-13.39198 m -2.77452,2.48 c 7.34704,0 13.29904,7.93597 13.29904,14.49248 0,5.456 -3.37904,7.62604 -8.246,7.62604 -7.14547,0 -13.98104,-8.23054 -13.98104,-15.17455 0,-5.549 3.85957,-6.94397 8.928,-6.94397"
     id="path28"
     style="stroke-width:0.992" />
  <path
     class="Note"
     d="m 1283.3702,204.49611 c -1.4647,2.84271 -5.5551,5.20801 -8.4738,6.66191 -0.4882,0.28211 -0.6944,0.62931 -0.6944,0.83546 0,0.2821 0.2062,0.55335 0.6944,0.7595 2.7776,1.52985 6.8789,4.3834 8.4738,7.01993 0.3472,0.55337 0.6185,0.90057 0.8355,0.90057 0.3472,0 0.6185,-0.3472 0.9005,-0.90057 1.1827,-2.36528 6.1086,-5.49008 8.4739,-6.80293 0.6944,-0.2821 0.9657,-0.5642 0.9657,-0.83545 0,-0.3472 -0.3472,-0.6293 -1.0416,-1.04161 -3.0489,-2.15914 -6.2496,-3.4069 -8.0508,-6.59681 -0.4882,-0.77037 -0.7703,-1.18263 -1.1175,-1.18263 -0.2061,0 -0.5533,0.41226 -0.9657,1.18263 m -1.736,8.19177 c 0,-1.8011 1.5299,-6.5317 2.6366,-6.5317 0.9765,0 2.6366,3.26584 2.6366,5.34905 0,1.94215 -1.6601,7.01995 -2.7017,7.01995 -0.9114,0 -2.5715,-4.3834 -2.5715,-5.8373"
     id="path29"
     style="stroke-width:0.6944" />
  <path
     class="Note"
     d="m 1074.594,49.6 c -14.384,0 -23.312,6.060475 -23.312,13.391975 0,7.2385 6.1535,13.68655 22.227,13.68655 17.6545,0 23.312,-6.13805 23.312,-13.68655 0,-7.6415 -12.1985,-13.391975 -22.227,-13.391975 m -2.7745,2.48 c 7.347,0 13.299,7.93597 13.299,14.492475 0,5.456 -3.379,7.62605 -8.246,7.62605 -7.1455,0 -13.981,-8.230545 -13.981,-15.174555 0,-5.549 3.8595,-6.94397 8.928,-6.94397"
     id="path30"
     style="stroke-width:0.992" />
  <path
     class="Note"
     d="m 1603.4804,227.27804 c -10.0688,0 -16.3184,4.24234 -16.3184,9.37439 0,5.06695 4.3075,9.58058 15.5589,9.58058 12.3581,0 16.3184,-4.29663 16.3184,-9.58058 0,-5.34905 -8.5389,-9.37439 -15.5589,-9.37439 m -1.9422,1.736 c 5.143,0 9.3094,5.55518 9.3094,10.14474 0,3.8192 -2.3654,5.33823 -5.7722,5.33823 -5.0019,0 -9.7868,-5.76138 -9.7868,-10.62219 0,-3.8843 2.7017,-4.86078 6.2496,-4.86078"
     id="path31"
     style="stroke-width:0.6944" />
  <path
     class="Note"
     d="m 1607.8502,204.49611 c -1.4647,2.84271 -5.5551,5.20801 -8.4738,6.66191 -0.4883,0.28211 -0.6944,0.62931 -0.6944,0.83546 0,0.2821 0.2061,0.55335 0.6944,0.7595 2.7776,1.52985 6.8789,4.3834 8.4738,7.01993 0.3472,0.55337 0.6185,0.90057 0.8355,0.90057 0.3472,0 0.6185,-0.3472 0.9005,-0.90057 1.1827,-2.36528 6.1086,-5.49008 8.4739,-6.80293 0.6944,-0.2821 0.9657,-0.5642 0.9657,-0.83545 0,-0.3472 -0.3472,-0.6293 -1.0416,-1.04161 -3.0489,-2.15914 -6.2496,-3.4069 -8.0508,-6.59681 -0.4882,-0.77037 -0.7703,-1.18263 -1.1175,-1.18263 -0.2061,0 -0.5533,0.41226 -0.9657,1.18263 m -1.736,8.19177 c 0,-1.8011 1.5299,-6.5317 2.6366,-6.5317 0.9765,0 2.6366,3.26584 2.6366,5.34905 0,1.94215 -1.6601,7.01995 -2.7017,7.01995 -0.9114,0 -2.5715,-4.3834 -2.5715,-5.8373"
     id="path32"
     style="stroke-width:0.6944" />
  <path
     class="Note"
     d="m 702.084,86.8 c -14.384,0 -23.312,6.060475 -23.312,13.39198 0,7.2385 6.1535,13.68654 22.22705,13.68654 17.65443,0 23.312,-6.13804 23.312,-13.68654 C 724.31105,92.550475 712.11252,86.8 702.084,86.8 m -2.77452,2.48 c 7.34704,0 13.29904,7.93597 13.29904,14.49248 0,5.456 -3.37904,7.62604 -8.246,7.62604 -7.14547,0 -13.98104,-8.23054 -13.98104,-15.17455 0,-5.549 3.85957,-6.94397 8.928,-6.94397"
     id="path33"
     style="stroke-width:0.992" />
  <path
     class="Note"
     d="m 1279.0004,227.27804 c -10.0688,0 -16.3184,4.24234 -16.3184,9.37439 0,5.06695 4.3075,9.58058 15.5589,9.58058 12.3581,0 16.3184,-4.29663 16.3184,-9.58058 0,-5.34905 -8.5389,-9.37439 -15.5589,-9.37439 m -1.9422,1.736 c 5.143,0 9.3094,5.55518 9.3094,10.14474 0,3.8192 -2.3654,5.33823 -5.7722,5.33823 -5.0019,0 -9.7868,-5.76138 -9.7868,-10.62219 0,-3.8843 2.7017,-4.86078 6.2496,-4.86078"
     id="path34"
     style="stroke-width:0.6944" />
  <path
     class="Note"
     d="m 1395.054,24.8 c -14.384,0 -23.312,6.060475 -23.312,13.391975 0,7.2385 6.1535,13.68655 22.227,13.68655 17.6545,0 23.312,-6.13805 23.312,-13.68655 0,-7.6415 -12.1985,-13.391975 -22.227,-13.391975 m -2.7745,2.48 c 7.347,0 13.299,7.93597 13.299,14.492475 0,5.456 -3.379,7.62605 -8.246,7.62605 -7.1455,0 -13.981,-8.230545 -13.981,-15.174555 0,-5.549 3.8595,-6.94397 8.928,-6.94397"
     id="path35"
     style="stroke-width:0.992" />
  <path
     class="Note"
     d="m 1719.534,0 c -14.384,0 -23.312,6.0604752 -23.312,13.391975 0,7.2385 6.1535,13.68655 22.227,13.68655 17.6545,0 23.312,-6.13805 23.312,-13.68655 C 1741.761,5.7504752 1729.5625,0 1719.534,0 m -2.7745,2.48 c 7.347,0 13.299,7.93597 13.299,14.492475 0,5.456 -3.379,7.62605 -8.246,7.62605 -7.1455,0 -13.981,-8.230545 -13.981,-15.1745548 0,-5.549 3.8595,-6.9439702 8.928,-6.9439702"
     id="path36"
     style="stroke-width:0.992" />
  <path
     class="Note"
     d="m 542.78148,176.48295 c -2.09243,4.06102 -7.93598,7.44002 -12.10548,9.51702 -0.6975,0.40301 -0.992,0.89901 -0.992,1.19351 0,0.403 0.2945,0.7905 0.992,1.085 3.968,2.1855 9.82705,6.262 12.10548,10.02847 0.496,0.79053 0.88357,1.28653 1.19357,1.28653 0.496,0 0.88347,-0.496 1.28643,-1.28653 1.68957,-3.37897 8.72652,-7.84297 12.10557,-9.71847 0.992,-0.403 1.37947,-0.806 1.37947,-1.1935 0,-0.496 -0.496,-0.899 -1.488,-1.48801 -4.35547,-3.08449 -8.928,-4.867 -11.50104,-9.42402 -0.69748,-1.10052 -1.10043,-1.68947 -1.59643,-1.68947 -0.29453,0 -0.79053,0.58895 -1.37957,1.68947 m -2.48,11.70253 c 0,-2.573 2.18557,-9.331 3.76652,-9.331 1.39505,0 3.76652,4.66549 3.76652,7.6415 0,2.7745 -2.37147,10.0285 -3.85947,10.0285 -1.302,0 -3.67357,-6.262 -3.67357,-8.339"
     id="path37"
     style="stroke-width:0.992" />
  <path
     class="Clef"
     d="m 55.908525,108.82548 c -0.201475,-1.19348 0,-1.28653 0.58895,-1.89105 10.710525,-10.012955 18.848,-22.61443 18.848,-37.788955 0,-8.633475 -2.38695,-17.174 -6.448,-23.126496 -1.488,-2.169504 -4.06095,-4.96 -5.161475,-4.96 -1.379475,0 -4.464,2.58912 -6.448,4.774496 -7.331475,8.122 -9.718525,20.522 -9.718525,30.844951 0,5.750524 0.697575,12.198524 1.39505,16.275049 0.186,1.193475 0.294525,1.379475 -0.89905,2.371475 C 33.774525,107.136 18.6,121.31843 18.6,141.35997 c 0,17.26701 11.81105,33.63498 36.11505,33.63498 2.278425,0 4.851475,-0.20147 6.835475,-0.60443 1.100525,-0.186 1.302,-0.29452 1.488,0.89896 C 64.232,181.93895 65.72,190.57252 65.72,195.238 c 0,14.67852 -9.92,16.46095 -15.763475,16.46095 -5.36305,0 -7.951475,-1.58095 -7.951475,-2.88295 0,-0.682 0.89895,-0.992 3.177475,-1.674 3.084525,-0.89905 6.649475,-3.58052 6.649475,-9.33105 0,-5.456 -3.472,-10.12147 -9.51695,-10.12147 -6.649575,0 -10.617575,5.25452 -10.617575,11.408 0,6.448 3.859575,16.16652 18.848,16.16652 6.649575,0 19.545575,-2.976 19.545575,-19.84 0,-5.642 -1.782525,-15.066 -2.88305,-21.21948 -0.201475,-1.19357 -0.09295,-1.10052 1.286525,-1.68957 10.028525,-3.968 16.678,-12.4 16.678,-23.60647 0,-12.71005 -9.33105,-23.91648 -23.916525,-23.91648 -2.57295,0 -2.57295,0 -2.867475,-1.78252 l -2.48,-14.384 M 65.224,56.435475 c 3.270525,0 5.952,2.681475 5.952,8.137475 0,11.020525 -9.424,19.948525 -17.251475,26.784 -0.697475,0.604525 -1.100525,0.496 -1.302,-0.790524 -0.387475,-2.572951 -0.58905,-5.952 -0.58905,-9.129476 0,-15.46895 7.145575,-25.001475 13.190525,-25.001475 M 54.420525,124 c 0.294525,1.89095 0.294525,1.78243 -1.488,2.38695 -8.742,2.976 -14.399475,10.80348 -14.399475,19.23553 0,8.928 4.665475,15.283 11.423475,17.56152 0.790525,0.29452 1.984,0.60452 2.666,0.60452 0.806,0 1.193475,-0.496 1.193475,-1.10052 0,-0.69748 -0.790525,-0.992 -1.488,-1.28652 -4.169475,-1.7825 -7.145475,-6.045 -7.145475,-10.6175 0,-5.6575 3.87495,-9.92001 9.92,-11.60955 1.596525,-0.38748 1.798,-0.29443 1.984,0.806 l 4.96,29.55852 c 0.201475,1.08505 0.108525,1.08505 -1.379475,1.37957 -1.596525,0.31 -3.580525,0.496 -5.564525,0.496 -17.36,0 -28.566525,-9.61 -28.566525,-23.40504 0,-5.859 0.992,-13.68653 9.222525,-23.01748 5.952,-6.64957 10.524525,-10.32305 15.19,-14.08957 0.992,-0.79043 1.178,-0.69748 1.379475,0.40305 L 54.420525,124 M 61.256,139.77895 c -0.201475,-1.19347 -0.09295,-1.488 1.100525,-1.39495 8.02895,0.69748 14.678525,7.43997 14.678525,16.16648 0,6.26204 -3.766525,11.315 -9.33105,14.08952 -1.193475,0.60452 -1.379475,0.60452 -1.58095,-0.58905 l -4.86705,-28.272"
     id="path38"
     style="stroke-width:0.992" />
  <polyline
     class="NoteLineSegment"
     fill="none"
     stroke="#000000"
     stroke-width="3.72"
     stroke-linejoin="miter"
     stroke-miterlimit="2"
     points="538.951,527.012 636.656,475.784"
     id="polyline38"
     transform="translate(-336.598,-310.60452)" />
  <polyline
     class="NoteLineSegment"
     fill="none"
     stroke="#000000"
     stroke-width="3.72"
     stroke-linejoin="miter"
     stroke-miterlimit="2"
     points="911.464,515.363 1009.17,434.861"
     id="polyline39"
     transform="translate(-336.598,-310.60452)" />
  <polyline
     class="NoteLineSegment"
     fill="none"
     stroke="#000000"
     stroke-width="3.72"
     stroke-linejoin="miter"
     stroke-miterlimit="2"
     points="1283.98,506.626 1381.68,404.169"
     id="polyline40"
     transform="translate(-336.598,-310.60452)" />
  <polyline
     class="NoteLineSegment"
     fill="none"
     stroke="#000000"
     stroke-width="3.72"
     stroke-linejoin="miter"
     stroke-miterlimit="2"
     points="1637.35,509.505 1692.22,415.566"
     id="polyline41"
     transform="translate(-336.598,-310.60452)" />
  <polyline
     class="NoteLineSegment"
     fill="none"
     stroke="#000000"
     stroke-width="3.72"
     stroke-linejoin="miter"
     stroke-miterlimit="2"
     points="1961.83,504.768 2016.7,399.087"
     id="polyline42"
     transform="translate(-336.598,-310.60452)" />
</svg>
