<?xml version="1.0" encoding="UTF-8" standalone="no"?>
<svg
   width="171.94099mm"
   height="40.49543mm"
   viewBox="0 0 2436.959 573.95099"
   version="1.2"
   id="svg72"
   sodipodi:docname="Obertonreihe-1.svg"
   inkscape:version="1.3 (0e150ed6c4, 2023-07-21)"
   xmlns:inkscape="http://www.inkscape.org/namespaces/inkscape"
   xmlns:sodipodi="http://sodipodi.sourceforge.net/DTD/sodipodi-0.dtd"
   xmlns="http://www.w3.org/2000/svg"
   xmlns:svg="http://www.w3.org/2000/svg">
  <defs
     id="defs72" />
  <sodipodi:namedview
     id="namedview72"
     pagecolor="#505050"
     bordercolor="#eeeeee"
     borderopacity="1"
     inkscape:showpageshadow="0"
     inkscape:pageopacity="0"
     inkscape:pagecheckerboard="0"
     inkscape:deskcolor="#d1d1d1"
     inkscape:document-units="mm"
     inkscape:zoom="1.6101725"
     inkscape:cx="309.59415"
     inkscape:cy="504.60431"
     inkscape:window-width="3840"
     inkscape:window-height="2054"
     inkscape:window-x="-11"
     inkscape:window-y="-11"
     inkscape:window-maximized="1"
     inkscape:current-layer="svg72" />
  <title
     id="title1">Obertonreihe</title>
  <desc
     id="desc1">Generated by MuseScore Studio 4.5.2</desc>
  <polyline
     class="StaffLines"
     fill="none"
     stroke="#000000"
     stroke-width="3.22"
     stroke-linejoin="bevel"
     points="336.599,451.893 2764.6,451.893"
     id="polyline1"
     transform="translate(-327.641,-212.739)" />
  <polyline
     class="StaffLines"
     fill="none"
     stroke="#000000"
     stroke-width="3.22"
     stroke-linejoin="bevel"
     points="336.599,476.693 2764.6,476.693"
     id="polyline2"
     transform="translate(-327.641,-212.739)" />
  <polyline
     class="StaffLines"
     fill="none"
     stroke="#000000"
     stroke-width="3.22"
     stroke-linejoin="bevel"
     points="336.599,501.493 2764.6,501.493"
     id="polyline3"
     transform="translate(-327.641,-212.739)" />
  <polyline
     class="StaffLines"
     fill="none"
     stroke="#000000"
     stroke-width="3.22"
     stroke-linejoin="bevel"
     points="336.599,526.293 2764.6,526.293"
     id="polyline4"
     transform="translate(-327.641,-212.739)" />
  <polyline
     class="StaffLines"
     fill="none"
     stroke="#000000"
     stroke-width="3.22"
     stroke-linejoin="bevel"
     points="336.599,551.093 2764.6,551.093"
     id="polyline5"
     transform="translate(-327.641,-212.739)" />
  <polyline
     class="BarLine"
     fill="none"
     stroke="#000000"
     stroke-width="3.97"
     stroke-linejoin="bevel"
     points="2740.3,450.281 2740.3,552.705"
     id="polyline6"
     transform="translate(-327.641,-212.739)" />
  <polyline
     class="BarLine"
     fill="none"
     stroke="#000000"
     stroke-width="12.4"
     stroke-linejoin="bevel"
     points="2758.4,450.281 2758.4,552.705"
     id="polyline7"
     transform="translate(-327.641,-212.739)" />
  <path
     class="Accidental"
     d="m 975.36251,305.61802 c 0.29449,0.40305 0.589,0.496 0.88349,0.496 0.31,0 0.60451,-0.20148 0.60451,-0.20148 2.976,-1.68947 5.3475,-4.35548 7.82755,-6.04505 8.83496,-6.15349 11.90401,-12.19849 11.90401,-16.771 0,-5.65755 -4.35558,-9.22251 -8.92801,-9.51703 -1.674,0 -4.06105,0.79053 -5.45605,1.68948 -0.589,0.496 -1.674,1.37957 -2.17,1.37957 -0.2015,0 -0.31,0 -0.496,-0.0931 -0.6975,-0.29452 -1.1005,-0.992 -1.1005,-1.68947 0.10849,-2.18548 0.69749,-25.99351 0.69749,-27.97751 0,-1.08505 -0.899,-1.68957 -1.891,-1.68957 -1.37949,0 -2.976,0.992 -3.069,2.77452 0,0 0.403,56.65259 1.19351,57.64459 m 3.472,-8.83501 c 0,0 -0.29451,-5.95201 -0.29451,-9.92001 0,-1.581 0.093,-2.77451 0.186,-3.16201 0.69751,-1.984 4.66551,-4.867 6.94406,-4.867 2.88295,0 4.07643,3.2705 4.07643,5.7505 0,5.36302 -4.57243,10.71052 -8.83498,13.39202 -0.3875,0.2015 -0.6975,0.2945 -0.992,0.2945 -0.88351,0 -1.085,-0.992 -1.085,-1.488"
     id="path7"
     style="stroke-width:0.992001" />
  <path
     class="Accidental"
     d="m 1555.9825,227.45146 c 0.6976,-0.29452 1.1936,-1.10052 1.1936,-1.68947 v -7.03706 c 0,-0.496 -0.31,-0.806 -0.6976,-0.806 -0.2015,0 -0.2944,0 -0.496,0.10852 0,0 -1.984,0.79053 -2.48,0.88348 -0.6975,0 -1.395,-0.496 -1.395,-1.28643 v -12.10558 c 0,-0.58895 -0.589,-1.08496 -1.3794,-1.08496 -0.992,0 -1.5966,0.49601 -1.5966,1.08496 v 12.89601 c -0.093,0.992 -0.3874,2.294 -1.2865,2.88305 -1.1935,0.69748 -4.5569,2.07695 -6.2465,2.48 -0.899,0 -1.1935,-1.19347 -1.1935,-1.984 v -11.90401 c 0,-0.60452 -0.6975,-1.10053 -1.395,-1.10053 -0.992,0 -1.581,0.49601 -1.581,1.10053 v 13.39201 c 0,1.39496 -0.589,2.38696 -1.1935,2.68148 -0.589,0.29453 -2.573,1.08505 -2.573,1.08505 -0.6975,0.20148 -1.1935,0.992 -1.1935,1.59643 v 7.03706 c 0,0.589 0.2945,0.899 0.899,0.899 l 0.186,-0.10851 c 0.1085,0 1.5965,-0.589 2.387,-0.992 l 0.093,-0.093 c 0.806,0 1.395,0.992 1.395,1.78251 v 9.82701 c 0,1.085 -0.496,1.984 -1.085,2.27848 -0.6045,0.20157 -2.6815,1.08505 -2.6815,1.08505 -0.6975,0.20147 -1.1935,0.992 -1.1935,1.59652 v 7.03696 c 0,0.58905 0.2945,0.89905 0.899,0.89905 l 0.186,-0.10852 c 0.1085,0 1.488,-0.58905 2.387,-0.88348 0.093,-0.10853 0.2015,-0.10853 0.2945,-0.10853 0.6975,0 1.1935,1.10053 1.1935,1.59653 v 12.19844 c 0,0.58905 0.589,1.08505 1.2865,1.08505 0.992,0 1.6895,-0.496 1.6895,-1.08505 v -13.79497 c 0,-1.28652 0.496,-1.984 0.992,-2.18547 l 6.0451,-2.48001 c 0,0 0.1084,0 0.1084,0 l 0.2016,-0.0931 c 0.8834,0 1.3794,1.19348 1.3794,1.78253 v 12.40001 c 0,0.60453 0.6046,1.10053 1.2866,1.10053 1.1004,0 1.6894,-0.496 1.6894,-1.10053 v -14.08949 c 0,-0.79052 0.403,-1.984 1.1006,-2.27852 0.682,-0.29453 2.7744,-1.08505 2.7744,-1.08505 0.6976,-0.29443 1.1936,-1.10043 1.1936,-1.68948 V 242.037 c 0,-0.496 -0.31,-0.806 -0.6976,-0.806 -0.2015,0 -0.2944,0 -0.496,0.10851 l -2.5884,0.992 c -0.5891,0 -1.2866,-0.60451 -1.2866,-1.78251 v -9.23801 c 0,-0.682 0.496,-2.573 1.2866,-2.86753 l 2.5884,-0.992 m -6.851,16.16654 c -0.589,1.98401 -5.2545,3.96801 -7.533,3.96801 -0.6045,0 -1.1005,-0.2015 -1.1935,-0.496 -0.2015,-0.403 -0.2945,-2.573 -0.2945,-4.96001 0,-3.069 0.093,-6.541 0.2945,-7.347 0.2015,-1.67401 4.7585,-3.76651 7.2385,-3.76651 0.6975,0 1.2866,0.2015 1.488,0.6045 0.2015,0.496 0.403,2.97601 0.403,5.64201 0,2.6815 -0.2015,5.456 -0.403,6.355"
     id="path8"
     style="stroke-width:0.992001" />
  <path
     class="Accidental"
     d="m 2106.8701,184.00493 c -0.186,0 -0.2946,0.0931 -0.3876,0.0931 0,0 -6.355,2.27853 -8.928,2.27853 -0.6045,0 -0.992,-0.0931 -0.992,-0.496 v -16.56959 c 0,-0.69748 -0.6045,-1.19348 -1.1935,-1.19348 h -1.2865 c -0.6975,0 -1.1935,0.496 -1.1935,1.19348 v 51.08815 c 0,0.60442 0.2945,0.89895 0.899,0.89895 l 0.186,-0.093 c 0.1085,0 0.31,0 0.403,-0.10853 1.395,-0.58905 6.944,-2.976 9.8271,-2.976 0.992,0 1.674,0.29453 1.674,1.10053 v 14.77149 c 0,0.69747 0.496,1.19347 1.1934,1.19347 h 1.2866 c 0.6044,0 1.1934,-0.496 1.1934,-1.19347 v -49.80163 c 0,-0.496 -0.3874,-0.79042 -0.7905,-0.79042 -0.093,0 -0.2945,0 -0.4029,0.10842 l -1.488,0.496 m -10.3076,14.07407 c 0,-1.37951 6.045,-3.96801 8.432,-3.96801 0.589,0 0.8836,0.1085 0.8836,0.496 V 204.837 c 0,1.78251 -5.6421,4.06101 -8.1221,4.06101 -0.6975,0 -1.1935,-0.2015 -1.1935,-0.589 V 198.079"
     id="path9"
     style="stroke-width:0.992001" />
  <path
     class="Accidental"
     d="m 1808.0425,231.21802 c 0.2945,0.40305 0.589,0.496 0.8835,0.496 0.31,0 0.6045,-0.20148 0.6045,-0.20148 2.976,-1.68947 5.3475,-4.35548 7.8276,-6.04505 8.8349,-6.15349 11.904,-12.19849 11.904,-16.771 0,-5.65755 -4.3556,-9.2225 -8.928,-9.51703 -1.674,0 -4.0611,0.79053 -5.4561,1.68948 -0.589,0.496 -1.674,1.37957 -2.17,1.37957 -0.2015,0 -0.31,0 -0.496,-0.0931 -0.6975,-0.29452 -1.1005,-0.992 -1.1005,-1.68947 0.1085,-2.18548 0.6975,-25.99351 0.6975,-27.97751 0,-1.08505 -0.899,-1.68957 -1.891,-1.68957 -1.3795,0 -2.976,0.992 -3.069,2.77452 0,0 0.403,56.65259 1.1935,57.64459 m 3.472,-8.83501 c 0,0 -0.2945,-5.95201 -0.2945,-9.92001 0,-1.581 0.093,-2.77451 0.186,-3.16201 0.6975,-1.984 4.6655,-4.867 6.9441,-4.867 2.8829,0 4.0764,3.2705 4.0764,5.7505 0,5.36302 -4.5724,10.71052 -8.835,13.39202 -0.3875,0.2015 -0.6975,0.2945 -0.992,0.2945 -0.8835,0 -1.085,-0.992 -1.085,-1.488"
     id="path10"
     style="stroke-width:0.992001" />
  <path
     class="Accidental"
     d="m 1952.6525,218.81802 c 0.2945,0.40305 0.589,0.496 0.8835,0.496 0.31,0 0.6045,-0.20148 0.6045,-0.20148 2.976,-1.68947 5.3475,-4.35548 7.8276,-6.04505 8.8349,-6.15349 11.904,-12.19849 11.904,-16.771 0,-5.65755 -4.3556,-9.22251 -8.928,-9.51703 -1.674,0 -4.0611,0.79053 -5.4561,1.68948 -0.589,0.496 -1.674,1.37957 -2.17,1.37957 -0.2015,0 -0.31,0 -0.496,-0.0931 -0.6975,-0.29452 -1.1005,-0.992 -1.1005,-1.68947 0.1085,-2.18548 0.6975,-25.99351 0.6975,-27.97751 0,-1.08505 -0.899,-1.68957 -1.891,-1.68957 -1.3795,0 -2.976,0.992 -3.069,2.77452 0,0 0.403,56.65259 1.1935,57.64459 m 3.472,-8.83501 c 0,0 -0.2945,-5.95201 -0.2945,-9.92001 0,-1.581 0.093,-2.77451 0.186,-3.16201 0.6975,-1.984 4.6655,-4.867 6.9441,-4.867 2.8829,0 4.0764,3.2705 4.0764,5.7505 0,5.36302 -4.5724,10.71052 -8.835,13.39202 -0.3875,0.2015 -0.6975,0.2945 -0.992,0.2945 -0.8835,0 -1.085,-0.992 -1.085,-1.488"
     id="path11"
     style="stroke-width:0.992001" />
  <polyline
     class="LedgerLine"
     fill="none"
     stroke="#000000"
     stroke-width="3.97"
     stroke-linejoin="bevel"
     points="2581.8,427.093 2647.17,427.093"
     id="polyline11"
     transform="translate(-327.641,-212.739)" />
  <polyline
     class="LedgerLine"
     fill="none"
     stroke="#000000"
     stroke-width="3.97"
     stroke-linejoin="bevel"
     points="759.925,575.893 825.288,575.893"
     id="polyline12"
     transform="translate(-327.641,-212.739)" />
  <polyline
     class="LedgerLine"
     fill="none"
     stroke="#000000"
     stroke-width="3.97"
     stroke-linejoin="bevel"
     points="759.925,600.693 825.288,600.693"
     id="polyline13"
     transform="translate(-327.641,-212.739)" />
  <polyline
     class="LedgerLine"
     fill="none"
     stroke="#000000"
     stroke-width="3.97"
     stroke-linejoin="bevel"
     points="452.554,575.893 517.918,575.893"
     id="polyline14"
     transform="translate(-327.641,-212.739)" />
  <polyline
     class="LedgerLine"
     fill="none"
     stroke="#000000"
     stroke-width="3.97"
     stroke-linejoin="bevel"
     points="452.554,600.693 517.918,600.693"
     id="polyline15"
     transform="translate(-327.641,-212.739)" />
  <polyline
     class="LedgerLine"
     fill="none"
     stroke="#000000"
     stroke-width="3.97"
     stroke-linejoin="bevel"
     points="900.069,575.893 965.433,575.893"
     id="polyline16"
     transform="translate(-327.641,-212.739)" />
  <polyline
     class="LedgerLine"
     fill="none"
     stroke="#000000"
     stroke-width="3.97"
     stroke-linejoin="bevel"
     points="2161.37,427.093 2226.73,427.093"
     id="polyline17"
     transform="translate(-327.641,-212.739)" />
  <polyline
     class="LedgerLine"
     fill="none"
     stroke="#000000"
     stroke-width="3.97"
     stroke-linejoin="bevel"
     points="2301.51,427.093 2366.88,427.093"
     id="polyline18"
     transform="translate(-327.641,-212.739)" />
  <polyline
     class="LedgerLine"
     fill="none"
     stroke="#000000"
     stroke-width="3.97"
     stroke-linejoin="bevel"
     points="2441.66,427.093 2507.02,427.093"
     id="polyline19"
     transform="translate(-327.641,-212.739)" />
  <polyline
     class="LedgerLine"
     fill="none"
     stroke="#000000"
     stroke-width="3.97"
     stroke-linejoin="bevel"
     points="2581.8,402.293 2647.17,402.293"
     id="polyline20"
     transform="translate(-327.641,-212.739)" />
  <path
     class="Note"
     d="m 158.14502,374.36051 c -14.38401,0 -23.31202,6.06048 -23.31202,13.39199 0,7.23851 6.15351,13.68656 22.22707,13.68656 17.65445,0 23.31203,-6.13805 23.31203,-13.68656 0,-7.64151 -12.19854,-13.39199 -22.22708,-13.39199 m -2.77452,2.48 c 7.34705,0 13.29906,7.93598 13.29906,14.49249 0,5.45601 -3.37905,7.62606 -8.24601,7.62606 -7.14548,0 -13.98106,-8.23055 -13.98106,-15.17457 0,-5.549 3.85958,-6.94398 8.92801,-6.94398"
     id="path20"
     style="stroke-width:0.992001" />
  <path
     class="Note"
     d="m 1866.961,200.76051 c -14.384,0 -23.312,6.06048 -23.312,13.39199 0,7.23851 6.1535,13.68656 22.2271,13.68656 17.6544,0 23.312,-6.13805 23.312,-13.68656 0,-7.64151 -12.1985,-13.39199 -22.2271,-13.39199 m -2.7745,2.48 c 7.3471,0 13.2991,7.93598 13.2991,14.49249 0,5.45601 -3.3791,7.62606 -8.246,7.62606 -7.1455,0 -13.9811,-8.23055 -13.9811,-15.17457 0,-5.549 3.8596,-6.94398 8.928,-6.94398"
     id="path21"
     style="stroke-width:0.992001" />
  <path
     class="Note"
     d="m 1726.811,213.16051 c -14.384,0 -23.312,6.06048 -23.312,13.39199 0,7.23851 6.1535,13.68656 22.2271,13.68656 17.6544,0 23.312,-6.13805 23.312,-13.68656 0,-7.64151 -12.1985,-13.39199 -22.2271,-13.39199 m -2.7745,2.48 c 7.3471,0 13.2991,7.93598 13.2991,14.49249 0,5.45601 -3.3791,7.62606 -8.246,7.62606 -7.1455,0 -13.9811,-8.23055 -13.9811,-15.17457 0,-5.549 3.8596,-6.94398 8.928,-6.94398"
     id="path22"
     style="stroke-width:0.992001" />
  <path
     class="Note"
     d="m 2147.251,188.36051 c -14.384,0 -23.312,6.06048 -23.312,13.39199 0,7.23851 6.1535,13.68656 22.2271,13.68656 17.6544,0 23.312,-6.13805 23.312,-13.68656 0,-7.64151 -12.1985,-13.39199 -22.2271,-13.39199 m -2.7745,2.48 c 7.3471,0 13.2991,7.93598 13.2991,14.49249 0,5.45601 -3.3791,7.62606 -8.246,7.62606 -7.1455,0 -13.9811,-8.23055 -13.9811,-15.17457 0,-5.549 3.8596,-6.94398 8.928,-6.94398"
     id="path23"
     style="stroke-width:0.992001" />
  <path
     class="Note"
     d="m 885.95102,299.96051 c -14.38401,0 -23.31202,6.06048 -23.31202,13.39199 0,7.23851 6.15351,13.68656 22.22707,13.68656 17.65445,0 23.31203,-6.13805 23.31203,-13.68656 0,-7.64151 -12.19854,-13.39199 -22.22708,-13.39199 m -2.77452,2.48 c 7.34705,0 13.29906,7.93598 13.29906,14.49249 0,5.45601 -3.37905,7.62606 -8.24601,7.62606 -7.14548,0 -13.98106,-8.23055 -13.98106,-15.17457 0,-5.549 3.85958,-6.94398 8.92801,-6.94398"
     id="path24"
     style="stroke-width:0.992001" />
  <path
     class="Note"
     d="m 605.66002,349.56051 c -14.38401,0 -23.31202,6.06048 -23.31202,13.39199 0,7.23851 6.15351,13.68656 22.22707,13.68656 17.65445,0 23.31203,-6.13805 23.31203,-13.68656 0,-7.64151 -12.19854,-13.39199 -22.22708,-13.39199 m -2.77452,2.48 c 7.34705,0 13.29906,7.93598 13.29906,14.49249 0,5.45601 -3.37905,7.62606 -8.24601,7.62606 -7.14548,0 -13.98106,-8.23055 -13.98106,-15.17457 0,-5.549 3.85958,-6.94398 8.92801,-6.94398"
     id="path25"
     style="stroke-width:0.992001" />
  <path
     class="Note"
     d="m 1446.531,237.96051 c -14.384,0 -23.312,6.06048 -23.312,13.39199 0,7.23851 6.1535,13.68656 22.2271,13.68656 17.6544,0 23.312,-6.13805 23.312,-13.68656 0,-7.64151 -12.1985,-13.39199 -22.2271,-13.39199 m -2.7745,2.48 c 7.3471,0 13.2991,7.93598 13.2991,14.49249 0,5.45601 -3.3791,7.62606 -8.246,7.62606 -7.1455,0 -13.9811,-8.23055 -13.9811,-15.17457 0,-5.549 3.8596,-6.94398 8.928,-6.94398"
     id="path26"
     style="stroke-width:0.992001" />
  <path
     class="Note"
     d="m 2007.101,188.36051 c -14.384,0 -23.312,6.06048 -23.312,13.39199 0,7.23851 6.1535,13.68656 22.2271,13.68656 17.6544,0 23.312,-6.13805 23.312,-13.68656 0,-7.64151 -12.1985,-13.39199 -22.2271,-13.39199 m -2.7745,2.48 c 7.3471,0 13.2991,7.93598 13.2991,14.49249 0,5.45601 -3.3791,7.62606 -8.246,7.62606 -7.1455,0 -13.9811,-8.23055 -13.9811,-15.17457 0,-5.549 3.8596,-6.94398 8.928,-6.94398"
     id="path27"
     style="stroke-width:0.992001" />
  <path
     class="Note"
     d="m 745.80102,324.76051 c -14.38401,0 -23.31202,6.06048 -23.31202,13.39199 0,7.23851 6.15351,13.68656 22.22707,13.68656 17.65445,0 23.31203,-6.13805 23.31203,-13.68656 0,-7.64151 -12.19854,-13.39199 -22.22708,-13.39199 m -2.77452,2.48 c 7.34705,0 13.29906,7.93598 13.29906,14.49249 0,5.45601 -3.37905,7.62606 -8.24601,7.62606 -7.14548,0 -13.98106,-8.23055 -13.98106,-15.17457 0,-5.549 3.85958,-6.94398 8.92801,-6.94398"
     id="path28"
     style="stroke-width:0.992001" />
  <path
     class="Note"
     d="m 1166.241,262.76051 c -14.384,0 -23.312,6.06048 -23.312,13.39199 0,7.23851 6.1535,13.68656 22.2271,13.68656 17.6544,0 23.312,-6.13805 23.312,-13.68656 0,-7.64151 -12.1985,-13.39199 -22.2271,-13.39199 m -2.7745,2.48 c 7.3471,0 13.2991,7.93598 13.2991,14.49249 0,5.45601 -3.3791,7.62606 -8.246,7.62606 -7.1455,0 -13.9811,-8.23055 -13.9811,-15.17457 0,-5.549 3.8596,-6.94398 8.928,-6.94398"
     id="path29"
     style="stroke-width:0.992001" />
  <path
     class="Note"
     d="m 1306.381,250.36051 c -14.384,0 -23.312,6.06048 -23.312,13.39199 0,7.23851 6.1535,13.68656 22.2271,13.68656 17.6544,0 23.312,-6.13805 23.312,-13.68656 0,-7.64151 -12.1985,-13.39199 -22.2271,-13.39199 m -2.7745,2.48 c 7.3471,0 13.2991,7.93598 13.2991,14.49249 0,5.45601 -3.3791,7.62606 -8.246,7.62606 -7.1455,0 -13.9811,-8.23055 -13.9811,-15.17457 0,-5.549 3.8596,-6.94398 8.928,-6.94398"
     id="path30"
     style="stroke-width:0.992001" />
  <path
     class="Note"
     d="m 1586.671,225.56051 c -14.384,0 -23.312,6.06048 -23.312,13.39199 0,7.23851 6.1535,13.68656 22.2271,13.68656 17.6544,0 23.312,-6.13805 23.312,-13.68656 0,-7.64151 -12.1985,-13.39199 -22.2271,-13.39199 m -2.7745,2.48 c 7.3471,0 13.2991,7.93598 13.2991,14.49249 0,5.45601 -3.3791,7.62606 -8.246,7.62606 -7.1455,0 -13.9811,-8.23055 -13.9811,-15.17457 0,-5.549 3.8596,-6.94398 8.928,-6.94398"
     id="path31"
     style="stroke-width:0.992001" />
  <path
     class="Note"
     d="m 465.51602,386.76051 c -14.38401,0 -23.31202,6.06048 -23.31202,13.39199 0,7.23851 6.15351,13.68656 22.22707,13.68656 17.65445,0 23.31203,-6.13805 23.31203,-13.68656 0,-7.64151 -12.19854,-13.39199 -22.22708,-13.39199 m -2.77452,2.48 c 7.34705,0 13.29906,7.93598 13.29906,14.49249 0,5.45601 -3.37905,7.62606 -8.24601,7.62606 -7.14548,0 -13.98106,-8.23055 -13.98106,-15.17457 0,-5.549 3.85958,-6.94398 8.92801,-6.94398"
     id="path32"
     style="stroke-width:0.992001" />
  <path
     class="Note"
     d="m 2287.391,175.96051 c -14.384,0 -23.312,6.06048 -23.312,13.39199 0,7.23851 6.1535,13.68656 22.2271,13.68656 17.6544,0 23.312,-6.13805 23.312,-13.68656 0,-7.64151 -12.1985,-13.39199 -22.2271,-13.39199 m -2.7745,2.48 c 7.3471,0 13.2991,7.93598 13.2991,14.49249 0,5.45601 -3.3791,7.62606 -8.246,7.62606 -7.1455,0 -13.9811,-8.23055 -13.9811,-15.17457 0,-5.549 3.8596,-6.94398 8.928,-6.94398"
     id="path33"
     style="stroke-width:0.992001" />
  <path
     class="Note"
     d="m 298.29002,287.56051 c -14.38401,0 -23.31202,6.06048 -23.31202,13.39199 0,7.23851 6.15351,13.68656 22.22707,13.68656 17.65445,0 23.31203,-6.13805 23.31203,-13.68656 0,-7.64151 -12.19854,-13.39199 -22.22708,-13.39199 m -2.77452,2.48 c 7.34705,0 13.29906,7.93598 13.29906,14.49249 0,5.45601 -3.37905,7.62606 -8.24601,7.62606 -7.14548,0 -13.98106,-8.23055 -13.98106,-15.17457 0,-5.549 3.85958,-6.94398 8.92801,-6.94398"
     id="path34"
     style="stroke-width:0.992001" />
  <path
     class="Note"
     d="m 1026.091,275.16051 c -14.384,0 -23.312,6.06048 -23.312,13.39199 0,7.23851 6.1535,13.68656 22.2271,13.68656 17.6544,0 23.312,-6.13805 23.312,-13.68656 0,-7.64151 -12.1985,-13.39199 -22.2271,-13.39199 m -2.7745,2.48 c 7.3471,0 13.2991,7.93598 13.2991,14.49249 0,5.45601 -3.3791,7.62606 -8.246,7.62606 -7.1455,0 -13.9811,-8.23055 -13.9811,-15.17457 0,-5.549 3.8596,-6.94398 8.928,-6.94398"
     id="path35"
     style="stroke-width:0.992001" />
  <path
     class="Clef"
     d="m 48.8395,237.9605 c -17.266987,0 -25.0015,12.60149 -25.0015,22.1185 0,7.936 4.169509,14.78701 12.198537,14.78701 6.246531,0 10.524536,-4.371 10.524536,-10.50901 0,-6.35501 -4.66558,-10.32301 -9.532535,-10.32301 -2.681478,0 -3.673528,0.6975 -4.960025,0.6975 -1.286506,0 -1.581001,-0.79055 -1.581001,-1.78255 0,-3.968 5.951976,-11.22201 16.073561,-11.22201 10.50896,0 15.08149,10.32306 15.08149,25.90058 0,27.68305 -13.702014,43.15201 -36.812562,56.34255 -0.899001,0.496 -1.488002,0.992 -1.488002,1.78253 0,0.60452 0.403001,1.19347 1.286502,1.19347 0.496005,0 1.100501,-0.20147 1.689501,-0.496 24.41255,-11.90401 50.204576,-29.55855 50.204576,-59.72155 0,-17.25157 -10.524536,-28.76801 -27.683078,-28.76801 m 37.401613,8.13748 c -3.084528,0 -5.456006,2.38695 -5.456006,5.45601 0,3.069 2.371478,5.456 5.456006,5.456 3.068953,0 5.456005,-2.387 5.456005,-5.456 0,-3.06906 -2.387052,-5.45601 -5.456005,-5.45601 m 0.09295,24.89303 c -3.068953,0 -5.347481,2.294 -5.347481,5.363 0,3.06906 2.278528,5.36306 5.347481,5.36306 3.084528,0 5.363055,-2.294 5.363055,-5.36306 0,-3.069 -2.278527,-5.363 -5.363055,-5.363"
     id="path36"
     style="stroke-width:0.992001" />
  <path
     class="Clef"
     d="m 398.17086,280.61956 c -0.16118,-0.95478 0,-1.02922 0.47116,-1.51284 8.56843,-8.01037 15.07842,-18.09157 15.07842,-30.2312 0,-6.90679 -1.90957,-13.73922 -5.15841,-18.50122 -1.1904,-1.73561 -3.24876,-3.96801 -4.12918,-3.96801 -1.10359,0 -3.57121,2.0713 -5.15841,3.8196 -5.86519,6.49761 -7.77483,16.41763 -7.77483,24.676 0,4.60042 0.55806,9.75883 1.11604,13.02005 0.1488,0.95478 0.23562,1.10358 -0.71924,1.89719 -11.43277,9.44885 -23.57241,20.7948 -23.57241,36.82806 0,13.81362 9.44885,26.90802 28.89208,26.90802 1.82274,0 3.88118,-0.16119 5.46838,-0.48355 0.88042,-0.1488 1.0416,-0.23562 1.1904,0.71917 0.95479,5.31958 2.14519,12.22645 2.14519,15.95884 0,11.74283 -7.93601,13.16877 -12.6108,13.16877 -4.29044,0 -6.36119,-1.26476 -6.36119,-2.30636 0,-0.5456 0.71916,-0.7936 2.54199,-1.3392 2.46762,-0.71924 5.31958,-2.86443 5.31958,-7.46485 0,-4.36481 -2.7776,-8.09719 -7.61357,-8.09719 -5.31966,0 -8.49407,4.20362 -8.49407,9.12641 0,5.15841 3.08767,12.93324 15.07842,12.93324 5.31967,0 15.63648,-2.38081 15.63648,-15.87202 0,-4.51361 -1.42602,-12.05282 -2.30644,-16.97561 -0.16118,-0.95486 -0.0744,-0.88042 1.02922,-1.35166 8.02283,-3.1744 13.34242,-9.92001 13.34242,-18.8852 0,-10.16805 -7.46485,-19.13321 -19.13325,-19.13321 -2.05836,0 -2.05836,0 -2.29398,-1.42602 l -1.984,-11.50721 m 7.45239,-41.91205 c 2.61642,0 4.7616,2.14518 4.7616,6.50998 0,8.81643 -7.53921,15.95884 -13.80119,21.42723 -0.55799,0.48362 -0.88043,0.3968 -1.04161,-0.63242 -0.30998,-2.05836 -0.47124,-4.76161 -0.47124,-7.30359 0,-12.37517 5.71647,-20.0012 10.55244,-20.0012 m -8.64279,54.05168 c 0.23562,1.51277 0.23562,1.42595 -1.19041,1.90957 -6.9936,2.3808 -11.51959,8.64279 -11.51959,15.38844 0,7.1424 3.73238,12.22641 9.13879,14.04923 0.63242,0.23562 1.5872,0.48362 2.1328,0.48362 0.6448,0 0.95479,-0.3968 0.95479,-0.88042 0,-0.55798 -0.63243,-0.7936 -1.19041,-1.02922 -3.33558,-1.426 -5.71638,-4.836 -5.71638,-8.49401 0,-4.526 3.09996,-7.93601 7.93601,-9.28765 1.27722,-0.30998 1.4384,-0.23554 1.5872,0.6448 l 3.968,23.64685 c 0.16118,0.86804 0.0868,0.86804 -1.10358,1.10366 -1.27722,0.248 -2.86442,0.3968 -4.45162,0.3968 -13.88802,0 -22.85325,-7.68801 -22.85325,-18.72406 0,-4.68721 0.7936,-10.94924 7.37803,-18.41401 4.7616,-5.31966 8.41963,-8.25845 12.15201,-11.27167 0.7936,-0.63234 0.9424,-0.55798 1.10358,0.32244 l 1.67403,10.15563 m 5.46838,12.62318 c -0.16118,-0.95478 -0.0744,-1.1904 0.88042,-1.11596 6.42317,0.55798 11.74284,5.95198 11.74284,12.93319 0,5.00965 -3.01323,9.05202 -7.46485,11.27164 -0.95478,0.48362 -1.10358,0.48362 -1.26476,-0.47124 l -3.89365,-22.61763"
     id="path37"
     style="stroke-width:0.793601" />
  <path
     class="Ornament"
     d="m 1599.6245,200.76051 h -11.904 V 188.8565 h -3.1775 v 11.90401 h -11.904 v 3.17748 h 11.904 V 215.842 h 3.1775 v -11.90401 h 11.904 v -3.17748"
     id="path38"
     style="stroke-width:0.992001" />
  <path
     class="Ornament"
     d="m 1039.0445,212.54051 h -11.904 V 200.6365 h -3.1775 v 11.90401 h -11.904 v 3.17748 h 11.904 V 227.622 h 3.1775 v -11.90401 h 11.904 v -3.17748"
     id="path39"
     style="stroke-width:0.992001" />
  <path
     class="Lyrics"
     d="m 154.83,93.902 c -1.687,2.047 -6.297,3.594 -10.89,3.704 v 2.14 h 4.39 c 2.906,0.063 3.203,0.36 3.11,3.156 v 20.047 c 0,2.563 0,2.657 -0.297,3.11 -0.407,0.5 -1.36,0.703 -4.157,0.703 h -3.25 v 2.344 h 19.797 v -2.344 h -2.75 c -2.797,0 -3.75,-0.203 -4.14,-0.703 -0.36,-0.453 -0.36,-0.5 -0.36,-3.11 v -20.64 c 0,-2.813 0.11,-5.157 0.36,-8.407 h -1.813"
     id="path40" />
  <path
     class="Lyrics"
     d="m 1019.199,457.546 c 0.5,-6.25 0.75,-7.906 1.84,-10.453 1.46,-3.547 4.1,-5.594 7.25,-5.594 1.75,0 2.8,0.547 2.8,1.438 0,0.203 -0.05,0.359 -0.25,0.703 -0.5,0.953 -0.75,1.703 -0.75,2.406 0,1.641 1.3,2.891 3.05,2.891 1.95,0 3.31,-1.5 3.31,-3.594 0,-3.453 -3.45,-6 -8.2,-6 -10.41,0 -14.61,10.953 -14.61,19.797 0,9.812 4.81,16.156 12.2,16.156 6.7,0 11.5,-5.344 11.5,-11.953 0,-5.891 -4.2,-10.297 -9.89,-10.297 -3.41,0 -5.91,1.344 -8.25,4.5 m 6.84,-1.453 c 3.66,0 5.85,2.859 5.85,7.609 0,5.797 -2.3,9.438 -5.94,9.438 -4.45,0 -6.45,-4.938 -6.45,-8.75 0,-5.141 2.5,-8.297 6.54,-8.297"
     id="path41" />
  <path
     class="Lyrics"
     d="m 298.833,439.343 c -1.687,2.047 -6.297,3.594 -10.891,3.703 v 2.141 h 4.391 c 2.906,0.062 3.203,0.359 3.109,3.156 v 20.047 c 0,2.562 0,2.656 -0.296,3.109 -0.407,0.5 -1.36,0.703 -4.157,0.703 h -3.25 v 2.344 h 19.797 v -2.344 h -2.75 c -2.797,0 -3.75,-0.203 -4.14,-0.703 -0.36,-0.453 -0.36,-0.5 -0.36,-3.109 v -20.641 c 0,-2.812 0.11,-5.156 0.36,-8.406 h -1.813"
     id="path42" />
  <path
     class="Lyrics"
     d="m 305.631,118.309 h -2.203 l -0.5,2.547 c -0.641,3.25 -1.047,3.546 -4.141,3.546 h -11.203 c 3.453,-3.593 4.594,-4.64 7.797,-7.14 4.547,-3.5 6.5,-5.25 7.656,-6.75 1.594,-2.203 2.391,-4.406 2.391,-6.86 0,-5.703 -4.703,-9.75 -11.25,-9.75 -6.344,0 -11.203,4.047 -11.203,9.407 0,3.14 1.609,5.297 3.953,5.297 1.859,0 3.109,-1.25 3.109,-3.047 0,-1.25 -0.703,-2.407 -1.75,-2.86 -1.859,-0.75 -1.953,-0.843 -1.953,-1.5 0,-0.75 0.5,-1.89 1.203,-2.75 1.25,-1.547 3.297,-2.39 5.641,-2.39 4.156,0 6.609,2.547 6.609,6.75 0,3.703 -1.75,7.047 -5.906,11.453 -3.703,3.89 -6,6.344 -6.844,7.297 -1.812,2.093 -2.703,3.25 -4.906,6.14 v 1.407 h 22.547 l 0.953,-10.797"
     id="path43" />
  <path
     class="Lyrics"
     d="m 1452.679,457.202 c -0.61,5.844 -0.91,7.594 -1.8,10.094 -1.31,3.703 -4,5.844 -7.4,5.844 -1.66,0 -2.75,-0.5 -2.75,-1.25 0,-0.188 0.09,-0.438 0.29,-0.844 0.55,-1.156 0.66,-1.5 0.66,-2.203 0,-1.703 -1.25,-2.953 -2.95,-2.953 -1.91,0 -3.41,1.609 -3.41,3.609 0,3.297 3.5,5.797 8.11,5.797 10.5,0 14.7,-10.406 14.7,-19.453 0,-10.047 -4.75,-16.5 -12.25,-16.5 -6.45,0 -11.45,5.297 -11.45,12.047 0,6 4.14,10.359 9.89,10.359 3.56,0 5.66,-1.156 8.36,-4.547 m -6.61,-15.703 c 3.7,0 6.16,3.641 6.16,9.297 0,2.047 -0.41,3.906 -1.16,5.047 -1.14,1.797 -3.09,2.906 -5.25,2.906 -3.8,0 -5.94,-2.953 -5.94,-8.25 0,-3.953 1.39,-9 6.19,-9"
     id="path44" />
  <path
     class="Lyrics"
     d="m 1428.709,93.902 c -1.69,2.047 -6.29,3.594 -10.89,3.704 v 2.14 h 4.39 c 2.91,0.063 3.21,0.36 3.11,3.156 v 20.047 c 0,2.563 0,2.657 -0.3,3.11 -0.4,0.5 -1.35,0.703 -4.15,0.703 h -3.25 v 2.344 h 19.8 v -2.344 h -2.75 c -2.8,0 -3.75,-0.203 -4.15,-0.703 -0.35,-0.453 -0.35,-0.5 -0.35,-3.11 v -20.64 c 0,-2.813 0.1,-5.157 0.35,-8.407 h -1.81 m 26.11,0 c -7,0 -12.11,7.594 -12.11,18.11 0,10.297 4.96,17.844 11.71,17.844 7,0 11.9,-7.297 11.9,-17.704 0,-5.296 -1.11,-9.703 -3.2,-13.156 -1.95,-3.14 -5.16,-5.094 -8.3,-5.094 m -0.36,2.157 c 1.66,0 3.25,1.093 4.46,3.093 1.35,2.344 1.79,5.204 1.79,12.047 0,7.063 -0.34,10.36 -1.34,12.563 -1.16,2.437 -2.95,3.937 -4.85,3.937 -1.7,0 -3.25,-1.093 -4.45,-3.093 -1.4,-2.344 -1.8,-5.454 -1.8,-13.657 0,-5.843 0.35,-8.75 1.35,-10.953 1.15,-2.5 2.95,-3.937 4.84,-3.937"
     id="path45" />
  <path
     class="Lyrics"
     d="m 1010.639,106.012 2.2,0.344 0.89,-3.954 c 0.75,-3.296 1.11,-3.796 2.55,-3.796 0.25,0 0.66,0 1.11,0.046 6.14,0.297 6.14,0.297 8.45,0.297 0.64,0 1.8,0 3.19,-0.047 l -3.39,6.86 c -3.7,7.344 -4.16,8.25 -5.41,11.344 -1.54,3.75 -2.34,6.906 -2.34,9 0,2.296 1.2,3.703 3.14,3.703 2.41,0 3.36,-1.61 3.31,-5.953 -0.25,-7.204 0.64,-10.704 6,-22.407 0.89,-1.953 1.85,-3.953 2.75,-5.89 v -1.453 c -3,0.25 -4.61,0.343 -7.7,0.343 -4.36,0 -7.8,-0.14 -13.2,-0.547 l -1.55,12.11"
     id="path46" />
  <path
     class="Lyrics"
     d="m 735.599,99.559 c 2.7,0.64 4.05,0.843 6.05,0.843 4.25,0 7.34,-1.453 9,-4.25 0.54,-0.906 0.75,-1.406 0.75,-1.796 0,-0.297 -0.1,-0.454 -0.41,-0.454 -0.14,0 -0.34,0.047 -0.64,0.204 -2.45,1.046 -3.75,1.296 -6.66,1.296 -3.2,0 -5.2,-0.296 -10.29,-1.5 -0.21,4.204 -0.66,9.547 -1.35,15.75 -1.06,1.11 -1.4,1.75 -1.4,2.547 0,1.063 0.65,1.703 1.59,1.703 1.31,0 2.06,-1.046 2.25,-3.046 1.75,-1.25 3.41,-1.797 5.41,-1.797 4.5,0 7.15,3.39 7.15,9.14 0,5.203 -1.65,9.5 -7.45,9.5 -3,0 -6.11,-1.547 -6.11,-3.093 0,-0.344 0.31,-0.75 0.91,-1.094 1.54,-0.953 2,-1.61 2,-2.953 0,-1.75 -1.35,-3.11 -3.16,-3.11 -2,0 -3.59,1.86 -3.59,4.203 0,2.5 1.45,5 3.7,6.547 1.7,1.11 3.7,1.657 6.34,1.657 7.86,0 12.8,-4.594 12.8,-11.954 0,-6.796 -4.5,-11.343 -11.3,-11.343 -2.14,0 -3.7,0.343 -6.45,1.5 l 0.86,-8.5"
     id="path47" />
  <path
     class="Lyrics"
     d="m 1849.649,93.902 c -1.69,2.047 -6.3,3.594 -10.89,3.704 v 2.14 h 4.39 c 2.9,0.063 3.2,0.36 3.11,3.156 v 20.047 c 0,2.563 0,2.657 -0.3,3.11 -0.41,0.5 -1.36,0.703 -4.16,0.703 h -3.25 v 2.344 h 19.8 v -2.344 h -2.75 c -2.8,0 -3.75,-0.203 -4.14,-0.703 -0.36,-0.453 -0.36,-0.5 -0.36,-3.11 v -20.64 c 0,-2.813 0.11,-5.157 0.36,-8.407 h -1.81 m 29.2,16.797 c 4.55,-1.64 6.66,-4.187 6.66,-8.203 0,-5.25 -4,-8.594 -10.21,-8.594 -5.84,0 -10.29,3.454 -10.29,8 0,2.047 1.34,3.5 3.29,3.5 1.75,0 2.96,-1.203 2.96,-3 0,-1.093 -0.41,-1.75 -1.55,-2.546 -0.5,-0.36 -0.66,-0.547 -0.66,-0.907 0,-1.39 2.91,-2.89 5.75,-2.89 3.6,0 5.5,2.25 5.5,6.5 0,4.64 -1.9,7.093 -5.45,7.093 -0.45,0 -1.3,-0.046 -2.05,-0.093 -0.4,-0.047 -0.79,-0.047 -1.09,-0.047 -1.06,0 -1.61,0.437 -1.61,1.344 0,0.843 0.5,1.25 1.61,1.25 0.3,0 0.69,0 1.14,-0.047 1,-0.047 1.8,-0.047 2.36,-0.047 3.69,0 5.69,2.64 5.69,7.594 0,5.203 -2.5,8.093 -7,8.093 -3.14,0 -6.55,-1.687 -6.55,-3.25 0,-0.437 0.11,-0.547 1.05,-1.093 1.4,-0.844 1.95,-1.704 1.95,-2.954 0,-1.796 -1.34,-3.14 -3.14,-3.14 -2.16,0 -3.56,1.75 -3.56,4.39 0,4.86 4.45,8.204 10.86,8.204 7.25,0 11.95,-4 11.95,-10.157 0,-4.687 -2.41,-7.547 -7.61,-9"
     id="path48" />
  <path
     class="Lyrics"
     d="m 749.659,439.343 -17,23.656 v 2.797 h 14.05 v 2.594 c 0,2.562 0,2.656 -0.3,3.109 -0.4,0.547 -1.36,0.703 -4.2,0.703 h -0.55 v 2.344 h 14.6 v -2.344 h -0.21 c -2.84,0 -3.79,-0.156 -4.2,-0.703 -0.3,-0.453 -0.3,-0.5 -0.3,-3.109 v -2.594 h 6.06 v -2.797 h -6.06 v -13.656 c 0,-6.25 0,-6.406 0.25,-10 h -2.14 m -2.95,23.656 h -11 l 11,-15.156 v 15.156"
     id="path49" />
  <path
     class="Lyrics"
     d="m 879.599,444.999 c 2.71,0.641 4.05,0.844 6.05,0.844 4.25,0 7.34,-1.453 9,-4.25 0.55,-0.906 0.75,-1.406 0.75,-1.797 0,-0.297 -0.09,-0.453 -0.41,-0.453 -0.14,0 -0.34,0.047 -0.64,0.203 -2.45,1.047 -3.75,1.297 -6.65,1.297 -3.21,0 -5.21,-0.297 -10.3,-1.5 -0.2,4.203 -0.66,9.547 -1.34,15.75 -1.07,1.109 -1.41,1.75 -1.41,2.547 0,1.062 0.66,1.703 1.59,1.703 1.32,0 2.07,-1.047 2.25,-3.047 1.75,-1.25 3.41,-1.797 5.41,-1.797 4.5,0 7.16,3.391 7.16,9.141 0,5.203 -1.66,9.5 -7.46,9.5 -3,0 -6.11,-1.547 -6.11,-3.094 0,-0.344 0.32,-0.75 0.91,-1.094 1.55,-0.953 2,-1.609 2,-2.953 0,-1.75 -1.34,-3.109 -3.16,-3.109 -2,0 -3.59,1.859 -3.59,4.203 0,2.5 1.45,5 3.7,6.547 1.71,1.109 3.71,1.656 6.35,1.656 7.86,0 12.79,-4.594 12.79,-11.953 0,-6.797 -4.5,-11.344 -11.29,-11.344 -2.14,0 -3.71,0.344 -6.46,1.5 l 0.86,-8.5"
     id="path50" />
  <path
     class="Lyrics"
     d="m 1310.539,455.046 c 3.7,-2 5.5,-4.5 5.5,-7.75 0,-4.609 -4.16,-7.953 -9.96,-7.953 -6.09,0 -10.54,4 -10.54,9.547 0,2.156 0.79,4.406 2.2,5.953 0.84,1 1.64,1.547 3.44,2.5 -4.1,1.609 -7.3,3.859 -7.3,8.797 0,2.75 1.36,5.453 3.45,7 1.96,1.406 4.66,2.156 7.85,2.156 3.7,0 6.81,-1 8.9,-2.797 2.1,-1.906 3.41,-4.953 3.41,-8 0,-2.859 -1.11,-5.406 -3.16,-7.203 -1,-0.906 -1.9,-1.406 -3.79,-2.25 m -5.36,-2 c -4.05,-1.453 -5.8,-3.344 -5.8,-6.25 0,-3.203 2.61,-5.297 6.55,-5.297 3.86,0 6.4,2.438 6.4,6.094 0,2.609 -1,4.297 -3.84,6.703 l -3.31,-1.25 m 2.9,6.953 c 3.8,1.344 5.41,3.297 5.41,6.594 0,4 -3.16,6.547 -8.06,6.547 -4.69,0 -7.39,-2.547 -7.39,-7 0,-3.75 1.54,-6 5.45,-7.797 l 4.59,1.656"
     id="path51" />
  <path
     class="Lyrics"
     d="m 875.199,112.106 c 0.5,-6.25 0.75,-7.907 1.84,-10.454 1.45,-3.546 4.09,-5.593 7.25,-5.593 1.75,0 2.8,0.547 2.8,1.437 0,0.203 -0.05,0.36 -0.25,0.703 -0.5,0.953 -0.75,1.703 -0.75,2.407 0,1.64 1.29,2.89 3.04,2.89 1.96,0 3.32,-1.5 3.32,-3.594 0,-3.453 -3.46,-6 -8.21,-6 -10.4,0 -14.61,10.954 -14.61,19.797 0,9.813 4.82,16.157 12.21,16.157 6.7,0 11.5,-5.344 11.5,-11.954 0,-5.89 -4.21,-10.296 -9.89,-10.296 -3.41,0 -5.91,1.343 -8.25,4.5 m 6.84,-1.454 c 3.66,0 5.84,2.86 5.84,7.61 0,5.797 -2.29,9.437 -5.93,9.437 -4.46,0 -6.46,-4.937 -6.46,-8.75 0,-5.14 2.5,-8.297 6.55,-8.297"
     id="path52" />
  <path
     class="Lyrics"
     d="m 605.657,93.902 -17,23.657 v 2.797 h 14.047 v 2.593 c 0,2.563 0,2.657 -0.297,3.11 -0.406,0.547 -1.359,0.703 -4.203,0.703 h -0.547 v 2.344 h 14.594 v -2.344 h -0.203 c -2.844,0 -3.797,-0.156 -4.203,-0.703 -0.297,-0.453 -0.297,-0.5 -0.297,-3.11 v -2.593 h 6.063 v -2.797 h -6.063 v -13.657 c 0,-6.25 0,-6.406 0.25,-10 h -2.141 m -2.953,23.657 h -11 l 11,-15.157 v 15.157"
     id="path53" />
  <path
     class="Lyrics"
     d="m 1993.649,439.343 c -1.69,2.047 -6.3,3.594 -10.89,3.703 v 2.141 h 4.39 c 2.9,0.062 3.2,0.359 3.11,3.156 v 20.047 c 0,2.562 0,2.656 -0.3,3.109 -0.41,0.5 -1.36,0.703 -4.16,0.703 h -3.25 v 2.344 h 19.8 v -2.344 h -2.75 c -2.8,0 -3.75,-0.203 -4.14,-0.703 -0.36,-0.453 -0.36,-0.5 -0.36,-3.109 v -20.641 c 0,-2.812 0.11,-5.156 0.36,-8.406 h -1.81 m 29.2,16.797 c 4.55,-1.641 6.66,-4.188 6.66,-8.203 0,-5.25 -4,-8.594 -10.21,-8.594 -5.84,0 -10.29,3.453 -10.29,8 0,2.047 1.34,3.5 3.29,3.5 1.75,0 2.96,-1.203 2.96,-3 0,-1.094 -0.41,-1.75 -1.55,-2.547 -0.5,-0.359 -0.66,-0.547 -0.66,-0.906 0,-1.391 2.91,-2.891 5.75,-2.891 3.6,0 5.5,2.25 5.5,6.5 0,4.641 -1.9,7.094 -5.45,7.094 -0.45,0 -1.3,-0.047 -2.05,-0.094 -0.4,-0.047 -0.79,-0.047 -1.09,-0.047 -1.06,0 -1.61,0.438 -1.61,1.344 0,0.844 0.5,1.25 1.61,1.25 0.3,0 0.69,0 1.14,-0.047 1,-0.047 1.8,-0.047 2.36,-0.047 3.69,0 5.69,2.641 5.69,7.594 0,5.203 -2.5,8.094 -7,8.094 -3.14,0 -6.55,-1.688 -6.55,-3.25 0,-0.438 0.11,-0.547 1.05,-1.094 1.4,-0.844 1.95,-1.703 1.95,-2.953 0,-1.797 -1.34,-3.141 -3.14,-3.141 -2.16,0 -3.56,1.75 -3.56,4.391 0,4.859 4.45,8.203 10.86,8.203 7.25,0 11.95,-4 11.95,-10.156 0,-4.688 -2.41,-7.547 -7.61,-9"
     id="path54" />
  <path
     class="Lyrics"
     d="m 1988.789,93.902 c -1.69,2.047 -6.3,3.594 -10.89,3.704 v 2.14 h 4.39 c 2.91,0.063 3.2,0.36 3.11,3.156 v 20.047 c 0,2.563 0,2.657 -0.3,3.11 -0.4,0.5 -1.36,0.703 -4.15,0.703 h -3.25 v 2.344 h 19.79 v -2.344 h -2.75 c -2.79,0 -3.75,-0.203 -4.14,-0.703 -0.36,-0.453 -0.36,-0.5 -0.36,-3.11 v -20.64 c 0,-2.813 0.11,-5.157 0.36,-8.407 h -1.81 m 30.31,0 -17,23.657 v 2.797 h 14.05 v 2.593 c 0,2.563 0,2.657 -0.3,3.11 -0.4,0.547 -1.36,0.703 -4.2,0.703 h -0.55 v 2.344 h 14.6 v -2.344 h -0.21 c -2.84,0 -3.79,-0.156 -4.2,-0.703 -0.3,-0.453 -0.3,-0.5 -0.3,-3.11 v -2.593 h 6.07 v -2.797 h -6.07 v -13.657 c 0,-6.25 0,-6.406 0.25,-10 h -2.14 m -2.95,23.657 h -11 l 11,-15.157 v 15.157"
     id="path55" />
  <path
     class="Lyrics"
     d="m 608.907,456.14 c 4.547,-1.641 6.656,-4.188 6.656,-8.203 0,-5.25 -4,-8.594 -10.203,-8.594 -5.844,0 -10.297,3.453 -10.297,8 0,2.047 1.344,3.5 3.297,3.5 1.75,0 2.953,-1.203 2.953,-3 0,-1.094 -0.406,-1.75 -1.547,-2.547 -0.5,-0.359 -0.656,-0.547 -0.656,-0.906 0,-1.391 2.906,-2.891 5.75,-2.891 3.594,0 5.5,2.25 5.5,6.5 0,4.641 -1.906,7.094 -5.453,7.094 -0.453,0 -1.297,-0.047 -2.047,-0.094 -0.406,-0.047 -0.797,-0.047 -1.094,-0.047 -1.062,0 -1.609,0.438 -1.609,1.344 0,0.844 0.5,1.25 1.609,1.25 0.297,0 0.688,0 1.141,-0.047 1,-0.047 1.797,-0.047 2.359,-0.047 3.688,0 5.688,2.641 5.688,7.594 0,5.203 -2.5,8.094 -7,8.094 -3.141,0 -6.547,-1.688 -6.547,-3.25 0,-0.438 0.109,-0.547 1.047,-1.094 1.406,-0.844 1.953,-1.703 1.953,-2.953 0,-1.797 -1.344,-3.141 -3.141,-3.141 -2.156,0 -3.562,1.75 -3.562,4.391 0,4.859 4.453,8.203 10.859,8.203 7.25,0 11.953,-4 11.953,-10.156 0,-4.688 -2.406,-7.547 -7.609,-9"
     id="path56" />
  <path
     class="Lyrics"
     d="m 1708.999,93.902 c -1.69,2.047 -6.3,3.594 -10.89,3.704 v 2.14 h 4.39 c 2.91,0.063 3.2,0.36 3.11,3.156 v 20.047 c 0,2.563 0,2.657 -0.3,3.11 -0.4,0.5 -1.36,0.703 -4.15,0.703 h -3.25 v 2.344 h 19.79 v -2.344 h -2.75 c -2.79,0 -3.75,-0.203 -4.14,-0.703 -0.36,-0.453 -0.36,-0.5 -0.36,-3.11 v -20.64 c 0,-2.813 0.11,-5.157 0.36,-8.407 h -1.81 m 37.16,24.407 h -2.21 l -0.5,2.547 c -0.64,3.25 -1.04,3.546 -4.14,3.546 h -11.2 c 3.45,-3.593 4.59,-4.64 7.8,-7.14 4.54,-3.5 6.5,-5.25 7.65,-6.75 1.6,-2.203 2.39,-4.406 2.39,-6.86 0,-5.703 -4.7,-9.75 -11.25,-9.75 -6.34,0 -11.2,4.047 -11.2,9.407 0,3.14 1.61,5.297 3.95,5.297 1.86,0 3.11,-1.25 3.11,-3.047 0,-1.25 -0.7,-2.407 -1.75,-2.86 -1.86,-0.75 -1.95,-0.843 -1.95,-1.5 0,-0.75 0.5,-1.89 1.2,-2.75 1.25,-1.547 3.3,-2.39 5.64,-2.39 4.16,0 6.61,2.547 6.61,6.75 0,3.703 -1.75,7.047 -5.9,11.453 -3.71,3.89 -6,6.344 -6.85,7.297 -1.81,2.093 -2.7,3.25 -4.9,6.14 v 1.407 h 22.54 l 0.96,-10.797"
     id="path57" />
  <path
     class="Lyrics"
     d="m 1308.679,111.762 c -0.61,5.844 -0.91,7.594 -1.8,10.094 -1.31,3.703 -4,5.843 -7.41,5.843 -1.65,0 -2.75,-0.5 -2.75,-1.25 0,-0.187 0.1,-0.437 0.3,-0.843 0.55,-1.157 0.66,-1.5 0.66,-2.204 0,-1.703 -1.25,-2.953 -2.96,-2.953 -1.9,0 -3.4,1.61 -3.4,3.61 0,3.297 3.5,5.797 8.11,5.797 10.5,0 14.7,-10.407 14.7,-19.454 0,-10.046 -4.75,-16.5 -12.25,-16.5 -6.45,0 -11.45,5.297 -11.45,12.047 0,6 4.14,10.36 9.89,10.36 3.56,0 5.65,-1.157 8.36,-4.547 m -6.61,-15.703 c 3.7,0 6.15,3.64 6.15,9.297 0,2.046 -0.4,3.906 -1.15,5.046 -1.14,1.797 -3.1,2.907 -5.25,2.907 -3.8,0 -5.94,-2.953 -5.94,-8.25 0,-3.953 1.39,-9 6.19,-9"
     id="path58" />
  <path
     class="Lyrics"
     d="m 1713.359,439.343 c -1.69,2.047 -6.3,3.594 -10.89,3.703 v 2.141 h 4.39 c 2.91,0.062 3.2,0.359 3.11,3.156 v 20.047 c 0,2.562 0,2.656 -0.3,3.109 -0.4,0.5 -1.36,0.703 -4.15,0.703 h -3.25 v 2.344 h 19.79 v -2.344 h -2.75 c -2.79,0 -3.75,-0.203 -4.14,-0.703 -0.36,-0.453 -0.36,-0.5 -0.36,-3.109 v -20.641 c 0,-2.812 0.11,-5.156 0.36,-8.406 h -1.81 m 28,0 c -1.69,2.047 -6.3,3.594 -10.89,3.703 v 2.141 h 4.39 c 2.91,0.062 3.2,0.359 3.11,3.156 v 20.047 c 0,2.562 0,2.656 -0.3,3.109 -0.4,0.5 -1.36,0.703 -4.15,0.703 h -3.25 v 2.344 h 19.79 v -2.344 h -2.75 c -2.79,0 -3.75,-0.203 -4.14,-0.703 -0.36,-0.453 -0.36,-0.5 -0.36,-3.109 v -20.641 c 0,-2.812 0.11,-5.156 0.36,-8.406 h -1.81"
     id="path59" />
  <path
     class="Lyrics"
     d="m 1852.999,439.343 c -1.68,2.047 -6.29,3.594 -10.89,3.703 v 2.141 h 4.39 c 2.91,0.062 3.21,0.359 3.11,3.156 v 20.047 c 0,2.562 0,2.656 -0.29,3.109 -0.41,0.5 -1.36,0.703 -4.16,0.703 h -3.25 v 2.344 h 19.8 v -2.344 h -2.75 c -2.8,0 -3.75,-0.203 -4.14,-0.703 -0.36,-0.453 -0.36,-0.5 -0.36,-3.109 v -20.641 c 0,-2.812 0.11,-5.156 0.36,-8.406 h -1.82 m 37.16,24.406 h -2.2 l -0.5,2.547 c -0.64,3.25 -1.05,3.547 -4.14,3.547 h -11.21 c 3.46,-3.594 4.6,-4.641 7.8,-7.141 4.55,-3.5 6.5,-5.25 7.66,-6.75 1.59,-2.203 2.39,-4.406 2.39,-6.859 0,-5.703 -4.71,-9.75 -11.25,-9.75 -6.35,0 -11.21,4.047 -11.21,9.406 0,3.141 1.61,5.297 3.96,5.297 1.86,0 3.11,-1.25 3.11,-3.047 0,-1.25 -0.71,-2.406 -1.75,-2.859 -1.86,-0.75 -1.96,-0.844 -1.96,-1.5 0,-0.75 0.5,-1.891 1.21,-2.75 1.25,-1.547 3.29,-2.391 5.64,-2.391 4.15,0 6.61,2.547 6.61,6.75 0,3.703 -1.75,7.047 -5.91,11.453 -3.7,3.891 -6,6.344 -6.84,7.297 -1.82,2.094 -2.71,3.25 -4.91,6.141 v 1.406 h 22.55 l 0.95,-10.797"
     id="path60" />
  <path
     class="Lyrics"
     d="m 2132.789,439.343 c -1.68,2.047 -6.29,3.594 -10.89,3.703 v 2.141 h 4.39 c 2.91,0.062 3.21,0.359 3.11,3.156 v 20.047 c 0,2.562 0,2.656 -0.29,3.109 -0.41,0.5 -1.36,0.703 -4.16,0.703 h -3.25 v 2.344 h 19.8 v -2.344 h -2.75 c -2.8,0 -3.75,-0.203 -4.14,-0.703 -0.36,-0.453 -0.36,-0.5 -0.36,-3.109 v -20.641 c 0,-2.812 0.11,-5.156 0.36,-8.406 h -1.82 m 30.32,0 -17,23.656 v 2.797 h 14.04 v 2.594 c 0,2.562 0,2.656 -0.29,3.109 -0.41,0.547 -1.36,0.703 -4.21,0.703 h -0.54 v 2.344 h 14.59 v -2.344 h -0.2 c -2.85,0 -3.8,-0.156 -4.21,-0.703 -0.29,-0.453 -0.29,-0.5 -0.29,-3.109 v -2.594 h 6.06 v -2.797 h -6.06 v -13.656 c 0,-6.25 0,-6.406 0.25,-10 h -2.14 m -2.96,23.656 h -11 l 11,-15.156 v 15.156"
     id="path61" />
  <path
     class="Lyrics"
     d="m 2129.429,93.902 c -1.68,2.047 -6.29,3.594 -10.89,3.704 v 2.14 h 4.39 c 2.91,0.063 3.21,0.36 3.11,3.156 v 20.047 c 0,2.563 0,2.657 -0.29,3.11 -0.41,0.5 -1.36,0.703 -4.16,0.703 h -3.25 v 2.344 h 19.8 v -2.344 h -2.75 c -2.8,0 -3.75,-0.203 -4.14,-0.703 -0.36,-0.453 -0.36,-0.5 -0.36,-3.11 v -20.64 c 0,-2.813 0.11,-5.157 0.36,-8.407 h -1.82 m 20.11,5.657 c 2.71,0.64 4.05,0.843 6.05,0.843 4.25,0 7.34,-1.453 9,-4.25 0.55,-0.906 0.75,-1.406 0.75,-1.796 0,-0.297 -0.09,-0.454 -0.41,-0.454 -0.14,0 -0.34,0.047 -0.64,0.204 -2.45,1.046 -3.75,1.296 -6.65,1.296 -3.21,0 -5.21,-0.296 -10.3,-1.5 -0.2,4.204 -0.66,9.547 -1.34,15.75 -1.07,1.11 -1.41,1.75 -1.41,2.547 0,1.063 0.66,1.703 1.59,1.703 1.32,0 2.07,-1.046 2.25,-3.046 1.75,-1.25 3.41,-1.797 5.41,-1.797 4.5,0 7.16,3.39 7.16,9.14 0,5.203 -1.66,9.5 -7.46,9.5 -3,0 -6.11,-1.547 -6.11,-3.093 0,-0.344 0.32,-0.75 0.91,-1.094 1.55,-0.953 2,-1.61 2,-2.953 0,-1.75 -1.34,-3.11 -3.16,-3.11 -2,0 -3.59,1.86 -3.59,4.203 0,2.5 1.45,5 3.7,6.547 1.71,1.11 3.71,1.657 6.35,1.657 7.86,0 12.79,-4.594 12.79,-11.954 0,-6.796 -4.5,-11.343 -11.29,-11.343 -2.14,0 -3.71,0.343 -6.46,1.5 l 0.86,-8.5"
     id="path62" />
  <path
     class="Lyrics"
     d="m 1569.359,93.902 c -1.69,2.047 -6.3,3.594 -10.89,3.704 v 2.14 h 4.39 c 2.9,0.063 3.2,0.36 3.11,3.156 v 20.047 c 0,2.563 0,2.657 -0.3,3.11 -0.41,0.5 -1.36,0.703 -4.16,0.703 h -3.25 v 2.344 h 19.8 v -2.344 h -2.75 c -2.8,0 -3.75,-0.203 -4.14,-0.703 -0.36,-0.453 -0.36,-0.5 -0.36,-3.11 v -20.64 c 0,-2.813 0.11,-5.157 0.36,-8.407 h -1.81 m 28,0 c -1.69,2.047 -6.3,3.594 -10.89,3.704 v 2.14 h 4.39 c 2.9,0.063 3.2,0.36 3.11,3.156 v 20.047 c 0,2.563 0,2.657 -0.3,3.11 -0.41,0.5 -1.36,0.703 -4.16,0.703 h -3.25 v 2.344 h 19.8 v -2.344 h -2.75 c -2.8,0 -3.75,-0.203 -4.14,-0.703 -0.36,-0.453 -0.36,-0.5 -0.36,-3.11 v -20.64 c 0,-2.813 0.11,-5.157 0.36,-8.407 h -1.81"
     id="path63" />
  <path
     class="Lyrics"
     d="m 464.904,110.699 c 4.547,-1.64 6.656,-4.187 6.656,-8.203 0,-5.25 -4,-8.594 -10.203,-8.594 -5.844,0 -10.297,3.454 -10.297,8 0,2.047 1.344,3.5 3.297,3.5 1.75,0 2.953,-1.203 2.953,-3 0,-1.093 -0.406,-1.75 -1.547,-2.546 -0.5,-0.36 -0.656,-0.547 -0.656,-0.907 0,-1.39 2.906,-2.89 5.75,-2.89 3.594,0 5.5,2.25 5.5,6.5 0,4.64 -1.906,7.093 -5.453,7.093 -0.453,0 -1.297,-0.046 -2.047,-0.093 -0.406,-0.047 -0.797,-0.047 -1.094,-0.047 -1.062,0 -1.609,0.437 -1.609,1.344 0,0.843 0.5,1.25 1.609,1.25 0.297,0 0.688,0 1.141,-0.047 1,-0.047 1.797,-0.047 2.359,-0.047 3.688,0 5.688,2.64 5.688,7.594 0,5.203 -2.5,8.093 -7,8.093 -3.141,0 -6.547,-1.687 -6.547,-3.25 0,-0.437 0.109,-0.547 1.047,-1.093 1.406,-0.844 1.953,-1.704 1.953,-2.954 0,-1.796 -1.344,-3.14 -3.141,-3.14 -2.156,0 -3.562,1.75 -3.562,4.39 0,4.86 4.453,8.204 10.859,8.204 7.25,0 11.953,-4 11.953,-10.157 0,-4.687 -2.406,-7.547 -7.609,-9"
     id="path64" />
  <path
     class="Lyrics"
     d="m 1166.529,109.606 c 3.71,-2 5.5,-4.5 5.5,-7.75 0,-4.61 -4.15,-7.954 -9.95,-7.954 -6.09,0 -10.55,4 -10.55,9.547 0,2.157 0.8,4.407 2.21,5.953 0.84,1 1.64,1.547 3.43,2.5 -4.09,1.61 -7.29,3.86 -7.29,8.797 0,2.75 1.36,5.453 3.45,7 1.95,1.407 4.66,2.157 7.84,2.157 3.71,0 6.82,-1 8.91,-2.797 2.09,-1.907 3.41,-4.953 3.41,-8 0,-2.86 -1.11,-5.407 -3.16,-7.203 -1,-0.907 -1.91,-1.407 -3.8,-2.25 m -5.36,-2 c -4.04,-1.454 -5.79,-3.344 -5.79,-6.25 0,-3.204 2.61,-5.297 6.54,-5.297 3.86,0 6.41,2.437 6.41,6.093 0,2.61 -1,4.297 -3.84,6.704 l -3.32,-1.25 m 2.91,6.953 c 3.8,1.343 5.41,3.297 5.41,6.593 0,4 -3.16,6.547 -8.07,6.547 -4.68,0 -7.39,-2.547 -7.39,-7 0,-3.75 1.55,-6 5.46,-7.797 l 4.59,1.657"
     id="path65" />
  <path
     class="Lyrics"
     d="m 1154.639,451.452 2.2,0.344 0.9,-3.953 c 0.75,-3.297 1.1,-3.797 2.54,-3.797 0.25,0 0.66,0 1.11,0.047 6.14,0.297 6.14,0.297 8.45,0.297 0.65,0 1.8,0 3.19,-0.047 l -3.39,6.859 c -3.7,7.344 -4.15,8.25 -5.4,11.344 -1.55,3.75 -2.35,6.906 -2.35,9 0,2.297 1.2,3.703 3.14,3.703 2.41,0 3.36,-1.609 3.31,-5.953 -0.25,-7.203 0.65,-10.703 6,-22.406 0.9,-1.953 1.85,-3.953 2.75,-5.891 v -1.453 c -3,0.25 -4.6,0.344 -7.7,0.344 -4.36,0 -7.8,-0.141 -13.2,-0.547 l -1.55,12.109"
     id="path66" />
  <path
     class="Lyrics"
     d="m 1572.719,439.343 c -1.69,2.047 -6.3,3.594 -10.9,3.703 v 2.141 h 4.4 c 2.9,0.062 3.2,0.359 3.1,3.156 v 20.047 c 0,2.562 0,2.656 -0.29,3.109 -0.41,0.5 -1.36,0.703 -4.16,0.703 h -3.25 v 2.344 h 19.8 v -2.344 h -2.75 c -2.8,0 -3.75,-0.203 -4.14,-0.703 -0.36,-0.453 -0.36,-0.5 -0.36,-3.109 v -20.641 c 0,-2.812 0.11,-5.156 0.36,-8.406 h -1.81 m 26.1,0 c -7,0 -12.1,7.594 -12.1,18.109 0,10.297 4.95,17.844 11.7,17.844 7,0 11.9,-7.297 11.9,-17.703 0,-5.297 -1.1,-9.703 -3.2,-13.156 -1.95,-3.141 -5.15,-5.094 -8.3,-5.094 m -0.35,2.156 c 1.65,0 3.25,1.094 4.45,3.094 1.36,2.344 1.8,5.203 1.8,12.047 0,7.062 -0.35,10.359 -1.35,12.562 -1.15,2.438 -2.95,3.938 -4.84,3.938 -1.71,0 -3.25,-1.094 -4.46,-3.094 -1.4,-2.344 -1.79,-5.453 -1.79,-13.656 0,-5.844 0.34,-8.75 1.34,-10.953 1.16,-2.5 2.95,-3.938 4.85,-3.938"
     id="path67" />
  <path
     class="Lyrics"
     d="m 2273.439,439.343 c -1.69,2.047 -6.3,3.594 -10.89,3.703 v 2.141 h 4.39 c 2.9,0.062 3.2,0.359 3.11,3.156 v 20.047 c 0,2.562 0,2.656 -0.3,3.109 -0.41,0.5 -1.36,0.703 -4.16,0.703 h -3.25 v 2.344 h 19.8 v -2.344 h -2.75 c -2.8,0 -3.75,-0.203 -4.14,-0.703 -0.36,-0.453 -0.36,-0.5 -0.36,-3.109 v -20.641 c 0,-2.812 0.11,-5.156 0.36,-8.406 h -1.81 m 20.11,5.656 c 2.7,0.641 4.04,0.844 6.04,0.844 4.25,0 7.35,-1.453 9,-4.25 0.55,-0.906 0.75,-1.406 0.75,-1.797 0,-0.297 -0.09,-0.453 -0.4,-0.453 -0.14,0 -0.35,0.047 -0.64,0.203 -2.46,1.047 -3.75,1.297 -6.66,1.297 -3.2,0 -5.2,-0.297 -10.3,-1.5 -0.2,4.203 -0.65,9.547 -1.34,15.75 -1.06,1.109 -1.41,1.75 -1.41,2.547 0,1.062 0.66,1.703 1.6,1.703 1.31,0 2.06,-1.047 2.25,-3.047 1.75,-1.25 3.4,-1.797 5.4,-1.797 4.5,0 7.16,3.391 7.16,9.141 0,5.203 -1.66,9.5 -7.45,9.5 -3,0 -6.11,-1.547 -6.11,-3.094 0,-0.344 0.31,-0.75 0.9,-1.094 1.55,-0.953 2,-1.609 2,-2.953 0,-1.75 -1.34,-3.109 -3.15,-3.109 -2,0 -3.6,1.859 -3.6,4.203 0,2.5 1.46,5 3.71,6.547 1.7,1.109 3.7,1.656 6.34,1.656 7.86,0 12.8,-4.594 12.8,-11.953 0,-6.797 -4.5,-11.344 -11.3,-11.344 -2.14,0 -3.7,0.344 -6.45,1.5 l 0.86,-8.5"
     id="path68" />
  <path
     class="Lyrics"
     d="m 2269.579,93.902 c -1.69,2.047 -6.3,3.594 -10.89,3.704 v 2.14 h 4.39 c 2.91,0.063 3.2,0.36 3.11,3.156 v 20.047 c 0,2.563 0,2.657 -0.3,3.11 -0.4,0.5 -1.36,0.703 -4.15,0.703 h -3.25 v 2.344 h 19.79 v -2.344 h -2.75 c -2.79,0 -3.75,-0.203 -4.14,-0.703 -0.36,-0.453 -0.36,-0.5 -0.36,-3.11 v -20.64 c 0,-2.813 0.11,-5.157 0.36,-8.407 h -1.81 m 19.56,18.204 c 0.5,-6.25 0.75,-7.907 1.85,-10.454 1.45,-3.546 4.09,-5.593 7.25,-5.593 1.75,0 2.79,0.547 2.79,1.437 0,0.203 -0.04,0.36 -0.25,0.703 -0.5,0.953 -0.75,1.703 -0.75,2.407 0,1.64 1.3,2.89 3.05,2.89 1.95,0 3.31,-1.5 3.31,-3.594 0,-3.453 -3.45,-6 -8.2,-6 -10.41,0 -14.61,10.954 -14.61,19.797 0,9.813 4.81,16.157 12.2,16.157 6.71,0 11.5,-5.344 11.5,-11.954 0,-5.89 -4.2,-10.296 -9.89,-10.296 -3.4,0 -5.9,1.343 -8.25,4.5 m 6.85,-1.454 c 3.65,0 5.84,2.86 5.84,7.61 0,5.797 -2.3,9.437 -5.94,9.437 -4.45,0 -6.45,-4.937 -6.45,-8.75 0,-5.14 2.5,-8.297 6.55,-8.297"
     id="path69" />
  <path
     class="Lyrics"
     d="m 476.715,463.749 h -2.203 l -0.5,2.547 c -0.64,3.25 -1.047,3.547 -4.14,3.547 h -11.203 c 3.453,-3.594 4.593,-4.641 7.796,-7.141 4.547,-3.5 6.5,-5.25 7.657,-6.75 1.593,-2.203 2.39,-4.406 2.39,-6.859 0,-5.703 -4.703,-9.75 -11.25,-9.75 -6.343,0 -11.203,4.047 -11.203,9.406 0,3.141 1.61,5.297 3.953,5.297 1.86,0 3.11,-1.25 3.11,-3.047 0,-1.25 -0.703,-2.406 -1.75,-2.859 -1.86,-0.75 -1.953,-0.844 -1.953,-1.5 0,-0.75 0.5,-1.891 1.203,-2.75 1.25,-1.547 3.297,-2.391 5.64,-2.391 4.157,0 6.61,2.547 6.61,6.75 0,3.703 -1.75,7.047 -5.907,11.453 -3.703,3.891 -6,6.344 -6.843,7.297 -1.813,2.094 -2.703,3.25 -4.907,6.141 v 1.406 h 22.547 l 0.953,-10.797"
     id="path70" />
  <path
     class="StaffText"
     d="M 37.887,0.75 H 7.934 l -0.75,13.906 h 2.141 c 0.703,-5.047 2.062,-11.547 8.453,-11.547 1.656,0 2.359,0.547 2.359,1.797 v 25.797 c 0,2.563 0,2.656 -0.312,3.109 -0.391,0.5 -1.344,0.704 -4.188,0.704 h -1.312 v 2.343 h 17.156 v -2.343 h -1.297 c -2.797,0 -3.75,-0.204 -4.156,-0.704 -0.297,-0.453 -0.297,-0.546 -0.297,-3.109 V 4.906 c 0,-1.25 0.703,-1.797 2.344,-1.797 6.406,0 7.703,6.547 8.406,11.547 h 2.156 L 37.887,0.75 m 23.594,24.859 c 0.047,-7.5 -4.203,-12.797 -10.297,-12.797 -6.406,0 -11.203,5.547 -11.203,13.047 0,7.047 4.547,11.75 11.297,11.75 4.797,0 8.156,-2.343 10.203,-7.093 l -1.75,-0.954 c -2.047,3.844 -4.156,5.344 -7.5,5.344 -2.547,0 -4.406,-1.047 -5.703,-3.297 -0.891,-1.5 -1.297,-3.25 -1.25,-6 H 61.481 M 45.325,23.453 c 0,-3.5 1.609,-8.5 5.812,-8.5 3,0 5,2.656 5,6.703 0,1.406 -0.453,1.797 -2.062,1.797 h -8.75 M 71.184,1.109 c -1.609,0 -2.906,1.297 -2.906,2.891 0,1.609 1.297,2.906 2.859,2.906 1.641,0 2.938,-1.297 2.938,-2.906 0,-1.594 -1.297,-2.891 -2.891,-2.891 m 2.344,12.453 -9.391,0.547 v 2.157 h 2.547 c 1.891,0.046 2.141,0.343 2.141,2.5 v 14.296 c -0.047,0.75 -0.094,1.047 -0.297,1.297 -0.344,0.453 -1.297,0.657 -3.453,0.703 h -0.344 v 1.797 H 77.684 V 35.062 H 77.325 C 73.981,34.953 73.528,34.703 73.528,32.906 V 13.562 M 89.434,0 80.184,0.562 v 2.141 h 2.453 c 1.844,0.047 2.094,0.359 2.094,2.5 v 27.859 c -0.047,0.75 -0.094,1.047 -0.297,1.297 -0.359,0.453 -1.297,0.657 -3.453,0.703 h -0.344 v 1.797 H 93.575 V 35.062 H 93.231 C 89.887,34.953 89.434,34.703 89.434,32.906 V 0 m 15.5,13.562 V 3.656 h -2.047 c -0.5,6.5 -2.703,9.797 -6.75,10.11 v 1.937 h 4.094 v 12.75 c 0,3.5 0.094,4.75 0.594,5.906 0.812,2.094 2.812,3.25 5.703,3.25 4.5,0 7.406,-3.406 7.406,-8.703 0,-0.297 0,-0.64 -0.047,-1.14 h -2.109 c -0.141,4.5 -1.453,6.796 -3.891,6.796 -1.156,0 -2.156,-0.609 -2.5,-1.453 -0.312,-0.703 -0.453,-1.953 -0.453,-3.75 V 15.703 h 7.344 v -2.141 h -7.344 m 16.844,-8.906 c -1.344,0 -2.5,1.156 -2.5,2.5 0,1.344 1.156,2.5 2.453,2.5 1.453,0 2.547,-1.094 2.547,-2.5 0,-1.344 -1.141,-2.5 -2.5,-2.5 m 9.953,0 c -1.344,0 -2.5,1.156 -2.5,2.5 0,1.344 1.156,2.5 2.453,2.5 1.453,0 2.547,-1.094 2.547,-2.5 0,-1.406 -1.094,-2.5 -2.5,-2.5 m -4.906,8.156 c -6.141,0 -10.891,5.454 -10.891,12.454 0,6.843 4.797,12.343 10.797,12.343 6,0 10.797,-5.5 10.797,-12.406 0,-6.844 -4.797,-12.391 -10.703,-12.391 m 0,2.141 c 3.5,0 5.453,3.656 5.453,10.25 0,6.656 -1.953,10.25 -5.547,10.25 -3.594,0 -5.547,-3.594 -5.547,-10.187 0,-6.813 1.891,-10.313 5.641,-10.313 m 22.406,-1.391 -8.656,0.547 v 2.157 h 1.812 c 1.891,0.046 2.141,0.343 2.141,2.5 v 14.296 c -0.047,0.75 -0.094,1.047 -0.297,1.297 -0.344,0.453 -1.297,0.657 -3.453,0.703 h -0.203 v 1.797 h 12.656 v -1.797 h -0.203 c -3.344,-0.109 -3.797,-0.359 -3.797,-2.156 v -7.39 c 0,-2.454 0.344,-4.704 0.906,-5.86 1.047,-2.25 3.297,-3.797 5.438,-3.797 1.312,0 2.812,0.703 3.562,1.75 0.75,1.094 1.094,2.594 1.094,5 v 10.453 c -0.047,0.75 -0.094,1.047 -0.297,1.297 -0.359,0.453 -1.359,0.657 -3.5,0.703 h -0.203 v 1.797 h 12.656 v -1.797 h -0.203 c -3.297,-0.109 -3.75,-0.359 -3.75,-2.156 V 22.859 c 0,-3.593 -0.156,-4.5 -1.047,-6.203 -1.25,-2.39 -3.75,-3.844 -6.75,-3.844 -3.25,0 -5.703,1.5 -7.906,4.797 v -4.047 m 44.25,12.047 c 0.047,-7.5 -4.203,-12.797 -10.297,-12.797 -6.406,0 -11.203,5.547 -11.203,13.047 0,7.047 4.547,11.75 11.297,11.75 4.797,0 8.156,-2.343 10.203,-7.093 l -1.75,-0.954 c -2.047,3.844 -4.156,5.344 -7.5,5.344 -2.547,0 -4.406,-1.047 -5.703,-3.297 -0.891,-1.5 -1.297,-3.25 -1.25,-6 h 16.203 m -16.156,-2.156 c 0,-3.5 1.609,-8.5 5.812,-8.5 3,0 5,2.656 5,6.703 0,1.406 -0.453,1.797 -2.062,1.797 h -8.75"
     id="path71" />
  <path
     class="StaffText"
     d="M 17.406,536.342 C 6.843,536.342 0,544.998 0,555.201 c 0,9.953 6.843,18.75 17.203,18.75 9.797,0 17.203,-8.093 17.203,-18.797 0,-10.609 -7.406,-18.812 -17,-18.812 m -0.063,2.359 c 3.36,0 6.157,1.547 7.954,4.297 1.859,2.953 2.5,6 2.5,12.156 0,6.094 -0.641,9.141 -2.5,12.141 -1.797,2.813 -4.547,4.313 -8.094,4.313 -3.547,0 -6.297,-1.454 -8.11,-4.313 -1.89,-3 -2.5,-6.047 -2.5,-12.25 0,-6.047 0.657,-9.047 2.5,-12.047 1.86,-2.906 4.5,-4.297 8.25,-4.297 m 28.407,-2.359 -8.594,0.562 v 2.141 h 1.75 c 1.891,0.047 2.141,0.359 2.141,2.5 v 19.453 c 0,6.953 -0.297,10.75 -0.891,12.906 h 1.891 l 2.453,-3.906 c 2.047,2.703 4.406,3.953 7.5,3.953 6.203,0 10.75,-5.297 10.75,-12.547 0,-7.203 -4.203,-12.25 -10.203,-12.25 -3.047,0 -4.891,1.047 -6.797,3.891 v -16.703 m 5.906,15.359 c 3.75,0 5.844,3.657 5.844,10.203 0,6.344 -2.047,9.891 -5.703,9.891 -3.954,0 -6.297,-3.641 -6.297,-9.797 0,-6.703 2.156,-10.297 6.156,-10.297 M 88,561.951 c 0.047,-7.5 -4.203,-12.797 -10.297,-12.797 -6.406,0 -11.203,5.547 -11.203,13.047 0,7.047 4.547,11.75 11.297,11.75 4.796,0 8.156,-2.343 10.203,-7.093 l -1.75,-0.954 c -2.047,3.844 -4.157,5.344 -7.5,5.344 -2.547,0 -4.407,-1.047 -5.703,-3.297 -0.891,-1.5 -1.297,-3.25 -1.25,-6 H 88 m -16.157,-2.156 c 0,-3.5 1.61,-8.5 5.813,-8.5 3,0 5,2.656 5,6.703 0,1.406 -0.453,1.797 -2.063,1.797 h -8.75 m 27.813,-9.891 -8.859,0.547 v 2.157 h 2.046 c 1.907,0.046 2.157,0.343 2.157,2.5 v 14.296 c -0.047,0.75 -0.094,1.047 -0.297,1.297 -0.36,0.453 -1.36,0.657 -3.5,0.703 H 91 v 1.797 h 13.343 v -1.797 h -0.89 c -3.36,-0.109 -3.797,-0.359 -3.797,-2.156 v -2.703 c 0.047,-8.391 3.047,-14.797 6.937,-15 -0.687,0.813 -0.89,1.313 -0.89,2.25 0,1.609 1.14,2.75 2.75,2.75 1.844,0 3.047,-1.344 3.047,-3.344 0,-2.453 -1.703,-4.047 -4.344,-4.047 -3.156,0 -5.859,2.5 -7.5,6.954 v -6.204 m 22.797,0 v -9.906 h -2.047 c -0.5,6.5 -2.703,9.797 -6.75,10.11 v 1.937 h 4.094 v 12.75 c 0,3.5 0.093,4.75 0.593,5.906 0.813,2.094 2.813,3.25 5.704,3.25 4.5,0 7.406,-3.406 7.406,-8.703 0,-0.297 0,-0.64 -0.047,-1.14 h -2.109 c -0.141,4.5 -1.454,6.796 -3.891,6.796 -1.156,0 -2.156,-0.609 -2.5,-1.453 -0.313,-0.703 -0.453,-1.953 -0.453,-3.75 v -13.656 h 7.344 v -2.141 h -7.344 m 16.844,-8.906 c -1.344,0 -2.5,1.156 -2.5,2.5 0,1.344 1.156,2.5 2.453,2.5 1.453,0 2.547,-1.094 2.547,-2.5 0,-1.344 -1.141,-2.5 -2.5,-2.5 m 9.953,0 c -1.344,0 -2.5,1.156 -2.5,2.5 0,1.344 1.156,2.5 2.453,2.5 1.453,0 2.547,-1.094 2.547,-2.5 0,-1.406 -1.094,-2.5 -2.5,-2.5 m -4.907,8.156 c -6.14,0 -10.89,5.454 -10.89,12.454 0,6.843 4.797,12.343 10.797,12.343 6,0 10.797,-5.5 10.797,-12.406 0,-6.844 -4.797,-12.391 -10.704,-12.391 m 0,2.141 c 3.5,0 5.454,3.656 5.454,10.25 0,6.656 -1.954,10.25 -5.547,10.25 -3.594,0 -5.547,-3.594 -5.547,-10.187 0,-6.813 1.89,-10.313 5.64,-10.313 m 22.407,-1.391 -8.657,0.547 v 2.157 h 1.813 c 1.891,0.046 2.141,0.343 2.141,2.5 v 14.296 c -0.047,0.75 -0.094,1.047 -0.297,1.297 -0.344,0.453 -1.297,0.657 -3.453,0.703 h -0.204 v 1.797 h 12.657 v -1.797 h -0.203 c -3.344,-0.109 -3.797,-0.359 -3.797,-2.156 v -7.39 c 0,-2.454 0.343,-4.704 0.906,-5.86 1.047,-2.25 3.297,-3.797 5.437,-3.797 1.313,0 2.813,0.703 3.563,1.75 0.75,1.094 1.094,2.594 1.094,5 v 10.453 c -0.047,0.75 -0.094,1.047 -0.297,1.297 -0.36,0.453 -1.36,0.657 -3.5,0.703 h -0.203 v 1.797 h 12.656 v -1.797 h -0.203 c -3.297,-0.109 -3.75,-0.359 -3.75,-2.156 v -10.047 c 0,-3.593 -0.156,-4.5 -1.047,-6.203 -1.25,-2.39 -3.75,-3.844 -6.75,-3.844 -3.25,0 -5.703,1.5 -7.906,4.797 v -4.047 M 211,561.951 c 0.047,-7.5 -4.203,-12.797 -10.297,-12.797 -6.406,0 -11.203,5.547 -11.203,13.047 0,7.047 4.547,11.75 11.297,11.75 4.796,0 8.156,-2.343 10.203,-7.093 l -1.75,-0.954 c -2.047,3.844 -4.157,5.344 -7.5,5.344 -2.547,0 -4.407,-1.047 -5.703,-3.297 -0.891,-1.5 -1.297,-3.25 -1.25,-6 H 211 m -16.157,-2.156 c 0,-3.5 1.61,-8.5 5.813,-8.5 3,0 5,2.656 5,6.703 0,1.406 -0.453,1.797 -2.063,1.797 h -8.75"
     id="path72" />
</svg>
